<?xml version="1.0" standalone="no"?>
<!DOCTYPE svg PUBLIC "-//W3C//DTD SVG 20010904//EN"
 "http://www.w3.org/TR/2001/REC-SVG-20010904/DTD/svg10.dtd">
<svg version="1.0" xmlns="http://www.w3.org/2000/svg"
 width="512.000000pt" height="512.000000pt" viewBox="0 0 512.000000 512.000000"
 preserveAspectRatio="xMidYMid meet">
<metadata>
Created by potrace 1.16, written by Peter Selinger 2001-2019
</metadata>
<g transform="translate(0.000000,512.000000) scale(0.100000,-0.100000)"
fill="#000000" stroke="none">
<path d="M2480 5109 c-14 -6 -38 -22 -53 -37 -58 -55 -61 -70 -67 -297 l-5
-209 -85 -12 c-331 -46 -667 -187 -934 -392 l-58 -45 -142 141 c-146 146 -184
172 -253 172 -73 -1 -158 -58 -182 -123 -17 -43 -13 -117 8 -162 11 -23 76
-96 154 -174 l136 -134 -43 -56 c-203 -263 -344 -601 -390 -931 l-12 -85 -209
-5 c-227 -6 -243 -9 -297 -67 -35 -37 -48 -73 -48 -133 0 -60 13 -96 48 -133
54 -58 70 -61 297 -67 l209 -5 12 -85 c46 -331 187 -667 392 -934 l45 -58
-141 -142 c-146 -146 -172 -184 -172 -253 1 -73 58 -158 123 -182 43 -17 117
-13 162 8 23 11 96 76 174 154 l134 136 56 -43 c263 -203 601 -344 931 -390
l85 -12 5 -209 c6 -227 9 -243 67 -297 37 -35 73 -48 133 -48 60 0 96 13 133
48 58 54 61 70 67 297 l5 209 85 12 c331 46 667 187 934 392 l58 45 142 -141
c146 -146 184 -172 253 -172 73 1 158 58 182 123 17 43 13 117 -8 162 -11 23
-76 96 -154 174 l-136 134 43 56 c203 263 344 601 390 931 l12 85 209 5 c227
6 243 9 297 67 35 37 48 73 48 133 0 60 -13 96 -48 133 -54 58 -70 61 -297 67
l-209 5 -12 85 c-46 331 -187 667 -392 934 l-45 58 141 142 c146 146 172 184
172 253 -1 73 -58 158 -123 182 -43 17 -117 13 -162 -8 -23 -11 -96 -76 -174
-154 l-134 -136 -56 43 c-263 203 -601 344 -931 390 l-85 12 -5 209 c-6 227
-9 243 -67 297 -15 15 -41 32 -56 37 -35 13 -123 13 -157 0z m-120 -1494 l0
-425 -33 -14 c-19 -7 -43 -17 -54 -20 -17 -6 -72 44 -317 285 -163 161 -295
297 -293 303 6 17 136 101 233 149 130 65 308 124 419 140 17 2 33 5 38 6 4 0
7 -190 7 -424z m525 399 c160 -33 349 -113 495 -210 38 -25 72 -49 74 -53 3
-4 -129 -141 -293 -305 l-297 -297 -50 19 -49 20 -3 426 -2 426 22 -4 c13 -3
59 -12 103 -22z m-933 -1200 l-20 -49 -426 -3 -426 -2 4 22 c30 147 43 195 68
268 46 131 124 280 197 378 l24 33 299 -298 299 -299 -19 -50z m1850 569 c110
-165 205 -403 231 -585 l6 -38 -424 0 -425 0 -14 33 c-7 19 -17 43 -20 54 -6
17 44 72 285 317 161 163 297 295 303 293 6 -2 32 -35 58 -74z m-1858 -1056
c7 -19 16 -43 20 -54 5 -16 -48 -75 -285 -317 -160 -163 -297 -295 -303 -293
-17 6 -101 136 -149 233 -67 134 -122 301 -140 427 l-6 37 424 0 425 0 14 -33z
m2092 11 c-30 -146 -43 -195 -68 -268 -46 -131 -124 -280 -197 -378 l-24 -33
-299 298 c-237 237 -297 302 -292 317 4 11 13 34 20 53 l14 33 425 0 425 0 -4
-22z m-1709 -394 l33 -14 0 -425 0 -425 -22 4 c-146 30 -195 43 -268 68 -131
46 -280 124 -378 197 l-33 24 298 299 c237 237 302 297 317 292 11 -4 34 -13
53 -20z m838 -265 c162 -161 294 -297 292 -303 -6 -17 -136 -101 -233 -149
-134 -67 -301 -122 -427 -140 l-37 -6 2 426 3 425 45 19 c25 10 48 18 52 18 3
1 140 -130 303 -290z"/>
</g>
</svg>
