<?xml version="1.0" standalone="no"?>
<!DOCTYPE svg PUBLIC "-//W3C//DTD SVG 20010904//EN"
 "http://www.w3.org/TR/2001/REC-SVG-20010904/DTD/svg10.dtd">
<svg version="1.0" xmlns="http://www.w3.org/2000/svg"
 width="1200.000000pt" height="1200.000000pt" viewBox="0 0 1200.000000 1200.000000"
 preserveAspectRatio="xMidYMid meet">
<metadata>
Created by potrace 1.16, written by Peter Selinger 2001-2019
</metadata>
<g transform="translate(0.000000,1200.000000) scale(0.100000,-0.100000)"
fill="#000000" stroke="none">
<path d="M5765 11754 c-350 -50 -538 -105 -784 -229 -219 -109 -412 -247 -579
-413 -357 -355 -574 -776 -659 -1280 -17 -101 -18 -229 -18 -2157 0 -1922 1
-2056 18 -2150 71 -399 208 -719 441 -1029 328 -437 825 -749 1361 -855 178
-35 296 -44 519 -38 284 6 498 45 735 133 809 302 1375 1032 1471 1899 8 71
10 688 7 2110 -3 2010 -3 2010 -25 2120 -49 252 -104 418 -207 630 -153 312
-395 604 -667 807 -142 106 -215 151 -358 223 -203 102 -393 164 -625 206 -97
17 -167 22 -360 24 -132 2 -253 1 -270 -1z m430 -514 c804 -93 1454 -714 1580
-1513 13 -77 18 -207 22 -534 l6 -433 -575 0 -575 0 -34 -23 c-58 -39 -79 -81
-79 -157 0 -76 21 -118 79 -157 l34 -23 573 0 574 0 0 -300 0 -300 -574 0
-573 0 -34 -23 c-58 -39 -79 -81 -79 -157 0 -76 21 -118 79 -157 l34 -23 573
0 574 0 0 -300 0 -300 -574 0 -573 0 -34 -23 c-58 -39 -79 -81 -79 -157 0 -76
21 -118 79 -157 l34 -23 573 0 574 0 0 -267 c-1 -439 -17 -611 -81 -826 -153
-514 -564 -958 -1070 -1153 -231 -89 -393 -119 -649 -119 -256 0 -418 30 -649
119 -515 199 -923 645 -1076 1176 -57 197 -66 284 -72 698 l-6 372 575 0 575
0 34 23 c58 39 79 81 79 157 0 76 -21 118 -79 157 l-34 23 -573 0 -574 0 0
300 0 300 574 0 573 0 34 23 c58 39 79 81 79 157 0 76 -21 118 -79 157 l-34
23 -573 0 -574 0 0 300 0 300 574 0 573 0 34 23 c58 39 79 81 79 157 0 76 -21
118 -79 157 l-34 23 -573 0 -574 0 0 328 c0 381 11 582 40 722 156 767 808
1354 1590 1433 79 8 281 6 365 -3z"/>
<path d="M2572 6129 c-58 -29 -109 -92 -129 -159 -13 -45 -15 -84 -9 -220 36
-931 379 -1748 994 -2374 447 -454 980 -763 1612 -935 178 -48 545 -111 650
-111 77 0 70 78 70 -811 l0 -799 -822 0 -823 0 -50 -24 c-92 -44 -135 -112
-135 -216 0 -104 43 -172 135 -216 l50 -24 1885 0 1885 0 50 24 c92 44 135
112 135 216 0 104 -43 172 -135 216 l-50 24 -822 0 -823 0 0 799 c0 889 -7
811 70 811 106 0 475 63 650 111 640 176 1156 474 1607 931 593 601 929 1365
994 2263 13 183 8 314 -13 366 -22 51 -72 104 -122 128 -95 47 -251 16 -309
-61 -50 -65 -57 -98 -67 -301 -22 -464 -121 -851 -317 -1242 -157 -312 -335
-559 -582 -805 -245 -244 -485 -417 -791 -571 -335 -168 -669 -265 -1060 -309
-126 -15 -469 -14 -600 0 -604 66 -1135 284 -1610 661 -132 105 -361 333 -467
465 -340 426 -562 931 -643 1461 -11 74 -25 224 -30 334 -10 210 -17 242 -67
307 -59 77 -215 108 -311 61z"/>
</g>
</svg>
