<?xml version="1.0" standalone="no"?>
<!DOCTYPE svg PUBLIC "-//W3C//DTD SVG 20010904//EN"
 "http://www.w3.org/TR/2001/REC-SVG-20010904/DTD/svg10.dtd">
<svg version="1.0" xmlns="http://www.w3.org/2000/svg"
 width="512.000000pt" height="512.000000pt" viewBox="0 0 512.000000 512.000000"
 preserveAspectRatio="xMidYMid meet">
<metadata>
Created by potrace 1.16, written by Peter Selinger 2001-2019
</metadata>
<g transform="translate(0.000000,512.000000) scale(0.100000,-0.100000)"
fill="#000000" stroke="none">
<path d="M2295 5101 c-22 -10 -54 -34 -72 -52 -56 -59 -63 -90 -63 -277 l0
-169 -117 -31 c-65 -16 -125 -33 -134 -37 -13 -5 -32 21 -89 121 -86 149 -115
185 -176 214 -36 18 -58 21 -118 18 -70 -3 -77 -6 -230 -93 -183 -105 -226
-139 -256 -200 -18 -37 -21 -59 -18 -118 3 -69 7 -78 81 -207 43 -74 76 -139
75 -145 -2 -5 -44 -50 -94 -100 l-90 -91 -139 80 c-130 75 -144 81 -206 84
-139 8 -181 -26 -315 -259 -97 -169 -99 -174 -102 -246 -3 -59 0 -81 18 -117
29 -61 65 -90 214 -176 100 -57 126 -76 121 -89 -4 -9 -21 -69 -37 -133 l-31
-118 -171 0 c-192 0 -223 -8 -283 -71 -59 -62 -63 -85 -63 -329 0 -244 4 -267
63 -329 60 -63 91 -71 283 -71 l171 0 31 -118 c16 -64 33 -124 37 -133 5 -13
-21 -32 -121 -89 -149 -86 -185 -115 -214 -176 -18 -36 -21 -58 -18 -117 3
-72 5 -77 102 -246 134 -233 176 -267 314 -259 62 3 77 9 207 84 l140 80 96
-96 95 -96 -80 -139 c-75 -130 -81 -144 -84 -206 -8 -139 26 -181 259 -315
169 -97 174 -99 246 -102 59 -3 81 0 117 18 61 29 90 65 176 214 57 100 76
126 89 121 9 -4 69 -21 134 -37 l117 -31 0 -169 c0 -187 7 -218 63 -277 63
-66 86 -71 337 -71 251 0 274 5 337 71 56 59 63 90 63 277 l0 169 118 31 c64
16 124 33 133 37 13 5 32 -21 89 -121 86 -149 115 -185 176 -214 36 -18 58
-21 117 -18 72 3 77 5 246 102 233 134 267 176 259 314 -3 63 -9 77 -83 206
-44 76 -78 141 -75 144 3 3 46 47 96 97 l90 91 139 -80 c130 -75 144 -81 206
-84 139 -8 181 26 315 259 95 166 99 175 102 241 5 86 -15 144 -66 190 -21 19
-95 67 -165 107 -101 58 -127 77 -122 90 4 9 21 69 37 134 l31 117 171 0 c192
0 223 8 283 71 59 62 63 85 63 331 0 249 -5 273 -71 335 -59 56 -90 63 -277
63 l-169 0 -31 118 c-16 64 -33 124 -37 133 -5 13 21 32 121 89 149 86 185
115 214 176 18 36 21 58 18 117 -3 72 -5 77 -102 246 -134 233 -176 267 -314
259 -62 -3 -77 -9 -204 -82 -75 -43 -140 -77 -145 -75 -4 2 -49 44 -99 94
l-91 90 81 140 c78 135 81 143 85 212 2 59 -1 81 -19 118 -30 61 -73 95 -256
200 -153 87 -160 90 -230 93 -60 3 -82 0 -118 -18 -61 -29 -90 -65 -176 -214
-57 -100 -76 -126 -89 -121 -9 4 -69 21 -133 37 l-118 31 0 169 c0 187 -7 218
-63 277 -63 66 -86 71 -337 71 -198 0 -230 -3 -265 -19z m503 -1296 c248 -48
464 -165 653 -354 157 -157 248 -304 314 -505 46 -141 59 -230 59 -386 0 -156
-13 -245 -59 -386 -66 -201 -157 -348 -314 -505 -157 -157 -304 -248 -505
-314 -141 -46 -230 -59 -386 -59 -156 0 -245 13 -386 59 -201 66 -348 157
-505 314 -157 157 -248 304 -314 505 -46 143 -60 231 -59 391 0 159 18 268 66
403 68 193 167 349 315 493 214 209 454 324 763 363 65 8 275 -3 358 -19z"/>
<path d="M2490 3099 c-271 -30 -471 -258 -472 -536 0 -156 51 -282 157 -388
105 -105 231 -156 385 -156 54 0 113 6 147 16 183 53 325 195 378 378 22 75
22 219 0 294 -76 263 -320 423 -595 392z"/>
</g>
</svg>
