<?xml version="1.0" standalone="no"?>
<!DOCTYPE svg PUBLIC "-//W3C//DTD SVG 20010904//EN"
 "http://www.w3.org/TR/2001/REC-SVG-20010904/DTD/svg10.dtd">
<svg version="1.0" xmlns="http://www.w3.org/2000/svg"
 width="500.000000pt" height="500.000000pt" viewBox="0 0 500.000000 500.000000"
 preserveAspectRatio="xMidYMid meet">
<metadata>
Created by potrace 1.16, written by Peter Selinger 2001-2019
</metadata>
<g transform="translate(0.000000,500.000000) scale(0.100000,-0.100000)"
fill="#000000" stroke="none">
<path d="M3105 3380 c-61 -59 -63 -64 -70 -123 -4 -34 -10 -69 -14 -78 -5 -14
-54 -5 -376 73 -303 73 -371 87 -380 75 -5 -7 -210 -271 -454 -585 -405 -521
-447 -572 -473 -572 -35 0 -57 -33 185 277 103 133 187 244 187 247 0 5 -26
10 -112 21 l-48 6 0 48 0 48 -81 31 -80 32 -55 -41 c-51 -39 -54 -44 -54 -85
l0 -44 -269 0 -269 0 -334 -432 c-387 -502 -361 -468 -355 -475 3 -2 34 -7 69
-9 35 -3 78 -7 96 -10 l32 -5 0 -99 0 -100 50 0 50 0 0 158 0 157 250 323
c137 177 253 322 257 322 4 -1 81 -112 171 -247 l162 -246 0 -233 0 -234 55 0
55 0 0 159 0 159 113 8 112 9 3 -162 2 -163 50 0 50 0 0 234 0 233 57 79 c31
44 205 272 387 507 288 373 331 425 340 409 6 -11 150 -267 321 -571 l310
-551 42 0 43 0 0 -175 0 -175 60 0 60 0 0 176 0 176 98 -7 c306 -20 598 -56
970 -117 l252 -42 0 -93 0 -93 55 0 55 0 0 80 c0 62 3 80 14 80 8 0 67 -11
132 -25 64 -14 119 -23 122 -21 5 6 11 -5 -308 593 l-235 441 -482 173 -483
172 0 116 0 116 -136 68 -135 68 -64 -61z"/>
<path d="M2160 2415 l0 -65 75 0 75 0 0 65 0 65 -75 0 -75 0 0 -65z"/>
<path d="M2360 2415 l0 -65 70 0 70 0 0 65 0 65 -70 0 -70 0 0 -65z"/>
<path d="M2160 2240 l0 -70 75 0 75 0 0 70 0 70 -75 0 -75 0 0 -70z"/>
<path d="M2360 2240 l0 -70 70 0 70 0 0 70 0 70 -70 0 -70 0 0 -70z"/>
</g>
</svg>
