<?xml version="1.0" standalone="no"?>
<!DOCTYPE svg PUBLIC "-//W3C//DTD SVG 20010904//EN"
 "http://www.w3.org/TR/2001/REC-SVG-20010904/DTD/svg10.dtd">
<svg version="1.0" xmlns="http://www.w3.org/2000/svg"
 width="512.000000pt" height="512.000000pt" viewBox="0 0 512.000000 512.000000"
 preserveAspectRatio="xMidYMid meet">

<g transform="translate(0.000000,512.000000) scale(0.100000,-0.100000)"
fill="#000000" stroke="none">
<path d="M631 5102 c-19 -9 -44 -30 -55 -45 -21 -28 -21 -38 -21 -585 l0 -557
2005 0 2005 0 0 557 c0 547 0 557 -21 585 -11 15 -36 36 -55 45 -32 17 -145
18 -1929 18 -1784 0 -1897 -1 -1929 -18z m3586 -253 c15 -6 38 -20 51 -31 22
-21 22 -23 22 -330 l0 -308 -1735 0 -1735 0 0 313 c0 295 1 315 19 331 10 9
32 21 47 26 44 13 3296 12 3331 -1z"/>
<path d="M1229 4707 c-67 -25 -106 -64 -127 -126 -45 -130 50 -261 188 -261
151 0 247 158 177 291 -43 81 -156 126 -238 96z"/>
<path d="M1885 4705 c-52 -19 -111 -82 -125 -135 -22 -80 13 -172 82 -217 36
-24 52 -28 113 -28 59 0 78 4 107 24 56 39 82 84 86 156 6 98 -43 172 -137
204 -44 14 -77 13 -126 -4z"/>
<path d="M550 1883 c0 -1757 0 -1778 20 -1811 11 -18 34 -41 52 -52 33 -20 55
-20 1938 -20 1883 0 1905 0 1938 20 18 11 41 34 52 52 20 33 20 54 20 1811 l0
1777 -2010 0 -2010 0 0 -1777z m3750 12 c0 -1659 5 -1541 -65 -1571 -29 -12
-280 -14 -1680 -14 -1452 0 -1649 2 -1675 15 -64 33 -60 -74 -60 1570 l0 1495
1740 0 1740 0 0 -1495z"/>
<path d="M2362 2985 c-284 -51 -542 -208 -713 -434 -65 -87 -153 -264 -184
-374 -145 -512 86 -1053 557 -1307 212 -114 488 -158 729 -115 458 80 817 431
915 895 24 115 24 325 0 440 -98 466 -457 814 -923 895 -103 18 -281 18 -381
0z m1138 -1187 c0 -13 -7 -51 -15 -86 -68 -288 -280 -544 -546 -659 -138 -60
-217 -76 -379 -77 -121 0 -160 3 -235 23 -339 88 -594 333 -689 665 -38 130
-36 137 25 82 27 -25 76 -58 107 -73 48 -24 69 -28 137 -28 92 0 141 21 238
100 31 25 57 42 57 36 0 -23 114 -132 164 -155 107 -51 234 -51 340 -3 53 25
161 120 184 162 10 20 11 19 39 -6 98 -92 269 -90 481 5 94 41 92 41 92 14z"/>
</g>
</svg>
