<?xml version="1.0" standalone="no"?>
<!DOCTYPE svg PUBLIC "-//W3C//DTD SVG 20010904//EN"
 "http://www.w3.org/TR/2001/REC-SVG-20010904/DTD/svg10.dtd">
<svg version="1.0" xmlns="http://www.w3.org/2000/svg"
 width="980.000000pt" height="980.000000pt" viewBox="0 0 980.000000 980.000000"
 preserveAspectRatio="xMidYMid meet">
<metadata>
Created by potrace 1.16, written by Peter Selinger 2001-2019
</metadata>
<g transform="translate(0.000000,980.000000) scale(0.100000,-0.100000)"
fill="#000000" stroke="none">
<path d="M4364 9791 c-50 -13 -133 -63 -166 -100 -17 -19 -43 -60 -57 -91
l-26 -55 -5 -606 -5 -605 -38 -78 c-46 -91 -129 -182 -202 -218 -28 -14 -148
-64 -267 -112 l-218 -88 -93 0 c-98 0 -186 22 -257 64 -19 12 -217 202 -440
424 -458 456 -459 456 -593 456 -87 0 -143 -19 -211 -72 -28 -21 -200 -189
-382 -372 -234 -236 -337 -346 -352 -378 -47 -99 -47 -210 -2 -302 15 -28 158
-179 425 -448 430 -433 440 -444 470 -572 18 -78 19 -147 1 -218 -15 -61 -174
-442 -211 -506 -37 -63 -131 -143 -215 -183 l-75 -36 -595 -5 -595 -5 -67 -33
c-73 -36 -123 -86 -160 -161 l-23 -46 0 -545 0 -545 34 -63 c40 -74 84 -115
161 -151 l55 -26 590 -5 590 -5 75 -36 c94 -45 177 -120 217 -196 60 -114 203
-482 212 -546 14 -105 -10 -230 -61 -316 -11 -20 -198 -214 -413 -431 -260
-261 -400 -410 -415 -438 -45 -92 -45 -204 2 -302 30 -62 727 -758 790 -789
96 -46 209 -46 303 1 24 12 196 175 440 417 359 356 406 400 461 424 85 37
195 53 276 40 56 -10 427 -157 542 -215 83 -42 175 -149 222 -258 18 -42 19
-81 24 -625 l5 -580 33 -67 c36 -73 86 -123 161 -160 l46 -23 545 0 545 0 46
23 c75 37 125 87 161 160 l33 67 5 580 c5 560 6 582 26 631 38 93 106 177 189
233 22 15 99 51 170 80 72 30 140 59 152 65 22 11 10 24 -225 259 l-248 248
-44 -16 c-204 -73 -544 -125 -816 -125 -597 0 -1193 210 -1664 586 -109 87
-327 305 -414 414 -162 203 -335 509 -421 744 -289 790 -190 1679 266 2376
432 661 1123 1095 1904 1196 177 23 496 23 670 0 604 -80 1137 -343 1561 -772
679 -686 932 -1667 672 -2602 l-32 -113 245 -245 c134 -134 246 -244 250 -244
3 0 27 55 54 122 98 250 156 326 305 397 l75 36 590 5 590 5 55 26 c77 36 121
77 161 151 l34 63 0 545 0 545 -23 46 c-37 75 -87 125 -160 161 l-67 33 -596
5 -596 5 -85 42 c-65 32 -100 58 -144 106 -33 34 -67 78 -76 97 -39 77 -188
441 -198 482 -14 63 -12 155 5 221 32 125 44 138 475 572 379 382 409 414 429
468 14 39 21 81 21 130 0 132 -7 141 -426 558 -426 422 -415 414 -563 407 -63
-3 -98 -10 -131 -27 -30 -16 -178 -155 -455 -431 -256 -254 -425 -415 -450
-428 -103 -50 -217 -70 -311 -53 -51 10 -437 160 -514 201 -82 43 -172 148
-212 249 -23 56 -23 61 -28 656 l-5 600 -26 56 c-36 76 -89 133 -157 166 l-57
28 -525 2 c-289 1 -539 -2 -556 -6z"/>
<path d="M4895 6803 c-175 -20 -405 -67 -405 -82 0 -15 296 -320 502 -517 241
-229 295 -289 376 -413 163 -249 205 -533 116 -793 -88 -261 -310 -505 -569
-629 -136 -65 -197 -80 -351 -86 -213 -9 -377 37 -565 159 -109 70 -298 253
-659 637 -124 132 -230 240 -235 240 -6 1 -27 -10 -46 -23 -34 -23 -37 -31
-48 -98 -67 -440 -15 -845 155 -1198 98 -205 192 -337 364 -513 406 -418 864
-626 1377 -627 208 0 401 32 648 107 89 27 138 37 190 37 128 1 139 -8 565
-428 206 -204 515 -506 685 -671 1309 -1267 1227 -1190 1339 -1247 74 -38 193
-68 265 -68 184 1 376 101 518 271 234 277 213 596 -57 883 -75 79 -691 677
-1450 1406 -696 669 -764 737 -791 790 -34 67 -32 150 8 270 69 206 100 375
110 590 28 675 -301 1300 -892 1695 -312 208 -661 317 -1005 313 -63 0 -128
-3 -145 -5z m3783 -5212 c65 -33 118 -87 149 -149 23 -47 28 -70 28 -132 -1
-99 -29 -163 -101 -229 -70 -64 -131 -85 -228 -79 -118 8 -203 64 -256 170
-26 52 -30 72 -30 138 0 66 4 86 31 138 36 73 97 127 172 154 69 25 175 20
235 -11z"/>
</g>
</svg>
