<?xml version="1.0" standalone="no"?>
<!DOCTYPE svg PUBLIC "-//W3C//DTD SVG 20010904//EN"
 "http://www.w3.org/TR/2001/REC-SVG-20010904/DTD/svg10.dtd">
<svg version="1.0" xmlns="http://www.w3.org/2000/svg"
 width="1600.000000pt" height="1600.000000pt" viewBox="0 0 1600.000000 1600.000000"
 preserveAspectRatio="xMidYMid meet">
<metadata>
Created by potrace 1.16, written by Peter Selinger 2001-2019
</metadata>
<g transform="translate(0.000000,1600.000000) scale(0.100000,-0.100000)"
fill="#000000" stroke="none">
<path d="M4350 14393 c-426 -28 -622 -49 -940 -99 -609 -96 -1249 -267 -1737
-465 -249 -101 -307 -138 -359 -231 l-29 -53 -3 -532 -3 -533 -220 0 c-243 0
-318 -10 -449 -61 -274 -105 -499 -355 -582 -644 l-23 -80 0 -4335 0 -4335 23
-80 c93 -322 345 -575 673 -677 l74 -23 3252 -3 3252 -2 51 -50 c97 -95 241
-183 365 -225 182 -61 428 -61 610 0 125 42 268 130 365 225 l51 50 3220 0
c3586 0 3283 -6 3465 69 104 44 172 85 262 160 159 132 287 357 322 565 7 42
10 1436 8 4366 l-3 4305 -23 75 c-109 351 -390 613 -734 684 -57 12 -135 16
-297 16 l-220 0 -3 533 -3 532 -29 53 c-37 66 -78 103 -164 146 -162 81 -534
216 -857 311 -554 163 -1154 271 -1815 327 -209 18 -1110 18 -1315 0 -913 -78
-1707 -253 -2397 -528 l-138 -55 -137 55 c-735 293 -1624 480 -2543 536 -146
9 -853 11 -970 3z m965 -653 c835 -51 1615 -215 2227 -468 l138 -57 0 -4612
c0 -2537 -2 -4613 -4 -4613 -2 0 -55 20 -118 44 -577 222 -1248 362 -2053 428
-218 18 -1191 18 -1410 0 -806 -66 -1475 -205 -2053 -428 -63 -24 -116 -44
-118 -44 -2 0 -4 2076 -4 4613 l0 4612 138 57 c600 248 1392 416 2197 467 189
12 874 13 1060 1z m6400 0 c835 -51 1616 -215 2227 -468 l138 -57 0 -4612 c0
-2537 -2 -4613 -4 -4613 -2 0 -55 20 -118 44 -577 222 -1248 362 -2053 428
-218 18 -1191 18 -1410 0 -806 -66 -1475 -205 -2053 -428 -63 -24 -116 -44
-118 -44 -2 0 -4 2076 -4 4613 l0 4612 138 57 c601 248 1392 416 2197 467 189
12 874 13 1060 1z m-10435 -6103 l0 -4204 30 -61 c57 -113 160 -175 290 -176
66 0 86 5 160 38 693 307 1483 497 2410 578 198 18 1075 17 1270 0 754 -67
1383 -197 1975 -407 139 -50 209 -78 435 -174 70 -30 96 -36 147 -34 63 1 156
26 183 48 24 20 241 109 412 169 554 196 1186 327 1898 393 237 22 1099 25
1340 5 909 -77 1718 -271 2410 -578 75 -34 94 -38 162 -38 65 0 86 5 142 33
71 35 122 87 155 162 21 44 21 55 21 4248 l0 4204 193 -5 c183 -4 195 -6 253
-32 76 -34 124 -83 161 -161 l28 -60 0 -4225 0 -4225 -33 -67 c-37 -76 -82
-120 -162 -157 l-55 -26 -7105 0 -7105 0 -55 26 c-80 37 -125 81 -162 157
l-33 67 0 4225 0 4225 28 60 c35 74 77 119 142 152 65 33 116 40 308 42 l157
1 0 -4203z"/>
<path d="M11025 12141 c-223 -65 -392 -238 -449 -458 -21 -80 -21 -246 0 -327
57 -220 248 -410 465 -461 81 -19 236 -19 316 0 225 53 415 243 468 467 19 83
19 244 -1 321 -58 223 -238 403 -461 461 -83 22 -259 20 -338 -3z"/>
<path d="M10062 9890 c-113 -57 -176 -160 -176 -291 0 -135 69 -240 194 -297
54 -25 58 -26 268 -23 l212 2 0 -1600 0 -1601 640 0 640 0 0 1795 0 1794 -21
56 c-28 74 -100 146 -174 174 -55 21 -70 21 -789 21 l-733 0 -61 -30z"/>
</g>
</svg>
