<?xml version="1.0" standalone="no"?>
<!DOCTYPE svg PUBLIC "-//W3C//DTD SVG 20010904//EN"
 "http://www.w3.org/TR/2001/REC-SVG-20010904/DTD/svg10.dtd">
<svg version="1.0" xmlns="http://www.w3.org/2000/svg"
 width="800.000000pt" height="800.000000pt" viewBox="0 0 800.000000 800.000000"
 preserveAspectRatio="xMidYMid meet">
<metadata>
Created by potrace 1.16, written by Peter Selinger 2001-2019
</metadata>
<g transform="translate(0.000000,800.000000) scale(0.100000,-0.100000)"
fill="#000000" stroke="none">
<path d="M2575 6420 c-3 -5 -3 -10 2 -10 4 0 0 -5 -10 -11 -9 -5 -21 -8 -26
-5 -4 3 -17 -4 -27 -17 l-19 -22 25 20 c14 11 5 -1 -20 -25 -24 -25 -48 -44
-53 -42 -5 1 -6 -1 -3 -6 3 -5 -5 -35 -18 -66 -13 -32 -26 -54 -28 -49 -3 4
-3 2 -1 -5 1 -8 3 -373 3 -813 l0 -799 33 0 c67 0 147 -34 147 -63 0 -6 -7 -2
-16 9 -15 18 -15 18 -6 0 5 -11 17 -21 26 -23 9 -2 24 -5 34 -7 9 -2 42 -7 72
-11 30 -4 66 -12 79 -17 16 -6 28 -4 39 4 8 7 16 11 16 8 1 -2 12 3 26 13 13
9 20 17 16 17 -5 0 -17 -6 -26 -12 -9 -7 -5 -3 8 10 33 31 89 29 160 -7 31
-16 66 -37 77 -46 11 -9 14 -13 6 -9 -9 4 -12 3 -7 -4 4 -6 13 -9 20 -6 15 6
109 -50 100 -59 -3 -3 3 -4 13 -3 10 0 17 -4 16 -10 -1 -7 8 -20 20 -30 l22
-19 -19 23 c-12 13 -14 22 -7 22 14 0 50 -76 51 -106 0 -12 11 -29 24 -38 14
-9 50 -36 81 -62 55 -44 57 -45 101 -36 36 8 51 6 82 -9 40 -20 73 -65 64 -88
-2 -8 0 -11 5 -8 12 8 46 -50 38 -63 -4 -6 -1 -9 7 -8 7 2 12 -5 11 -15 0 -10
1 -16 4 -13 3 3 18 -14 33 -37 48 -77 62 -141 39 -191 -10 -21 -6 -37 21 -102
17 -42 29 -85 27 -95 -3 -11 -1 -17 4 -13 5 3 9 0 9 -5 0 -6 14 -11 31 -11 22
0 41 -10 64 -33 42 -42 48 -79 43 -276 l-3 -151 403 0 c334 0 402 2 402 14 0
25 41 107 50 101 6 -3 7 0 4 8 -3 8 0 18 7 23 8 5 10 3 4 -6 -5 -9 -4 -11 4
-6 6 4 9 12 5 17 -7 11 48 108 75 133 11 10 36 23 55 30 22 8 47 28 66 54 17
24 35 40 39 37 5 -2 15 3 22 12 8 9 9 14 3 10 -15 -9 -24 14 -24 60 0 45 31
75 153 144 84 49 98 53 157 54 36 0 82 6 102 14 21 7 43 9 49 5 8 -4 9 -3 5 4
-4 7 -1 12 8 12 9 0 16 5 16 11 0 5 6 7 13 3 9 -6 9 -4 -1 8 -11 14 -9 21 17
50 l29 33 145 3 c118 3 151 0 176 -13 17 -8 31 -18 31 -21 0 -3 -6 -2 -12 1
-7 4 -5 0 5 -9 10 -8 49 -20 86 -26 65 -12 68 -12 105 14 21 14 48 26 59 26
31 0 108 -40 100 -52 -3 -7 -1 -8 6 -4 6 4 49 -16 96 -44 79 -48 85 -54 91
-91 4 -21 11 -39 16 -39 5 0 6 -5 2 -12 -4 -6 -3 -8 3 -5 6 4 17 -1 24 -10 12
-14 12 -16 0 -8 -10 5 -12 4 -7 -4 4 -6 11 -9 16 -6 5 3 19 -5 32 -17 16 -16
17 -18 3 -8 -16 12 -15 9 4 -13 24 -26 38 -36 27 -18 -16 25 84 28 111 4 10
-10 14 -15 9 -10 -6 4 -15 7 -21 7 -12 -1 25 -23 43 -26 11 -2 12 99 10 534
-2 295 0 523 3 507 6 -27 7 -27 7 -5 1 28 -16 75 -17 50 -1 -13 -2 -13 -11 0
-13 20 -13 33 0 25 6 -3 7 1 4 9 -3 9 -10 13 -15 10 -5 -3 -10 0 -10 5 -3 23
-5 27 -22 51 -9 13 -17 20 -17 16 0 -5 8 -19 17 -30 10 -12 -3 -1 -29 24 -45
43 -69 72 -30 37 10 -10 23 -17 28 -17 13 0 -38 34 -56 36 -8 1 -33 9 -55 18
-22 8 -49 16 -60 17 -18 1 -17 2 3 7 13 4 -78 6 -202 4 l-226 -4 0 261 c0 160
4 262 10 266 6 4 7 -1 4 -12 -4 -14 -4 -15 4 -4 5 7 7 22 4 34 -4 15 -2 18 8
12 9 -5 11 -4 6 4 -11 17 16 84 27 68 6 -8 7 -5 3 7 -8 23 32 128 45 120 5 -3
6 2 3 11 -7 17 14 77 25 71 3 -2 6 11 6 29 0 18 -2 32 -4 30 -6 -6 -29 20 -24
27 2 4 -4 5 -13 1 -13 -5 -15 -3 -9 7 5 9 4 11 -4 6 -6 -4 -28 -2 -47 4 -27 9
-33 15 -23 21 9 6 3 7 -16 3 -16 -4 -35 -7 -42 -7 -6 0 -12 -3 -11 -6 1 -19
-16 -50 -25 -44 -6 3 -7 1 -3 -6 4 -6 4 -21 1 -32 -6 -17 -9 -19 -17 -8 -7 11
-8 9 -4 -5 9 -27 -44 -172 -56 -154 -5 8 -6 3 -2 -13 3 -17 1 -30 -7 -34 -8
-6 -10 -4 -4 5 5 8 4 11 -3 7 -5 -4 -8 -17 -4 -29 3 -12 1 -19 -4 -15 -5 3
-10 -7 -9 -21 0 -15 -5 -26 -11 -25 -7 1 -11 -3 -11 -10 0 -7 -1 -137 -1 -289
l-2 -278 -115 0 -115 0 0 145 0 145 -27 1 -28 1 25 8 c24 8 24 8 3 9 -13 1
-23 7 -23 16 0 11 13 15 53 17 l52 1 -55 7 -55 7 59 1 c49 2 57 4 52 18 -6 15
-4 15 11 3 14 -10 15 -10 6 0 -6 7 -21 18 -34 25 -12 6 -25 18 -27 26 -5 13
-3 13 11 1 30 -24 18 -6 -15 25 -27 24 -29 25 -13 4 l20 -25 -23 19 c-12 11
-21 25 -18 32 3 7 -5 20 -17 31 l-22 18 20 -25 c12 -15 5 -11 -18 10 -21 19
-35 40 -33 46 2 6 -10 25 -27 40 -18 16 -29 25 -25 20 7 -8 -14 -36 -28 -36
-15 0 -52 -43 -48 -55 3 -7 -19 -34 -48 -60 -29 -27 -44 -42 -33 -34 20 13 20
13 1 -8 -10 -13 -23 -20 -27 -17 -5 3 -6 -2 -3 -11 5 -11 0 -18 -15 -22 -39
-10 -10 -23 57 -25 l67 -1 -65 -7 -65 -7 58 -1 c43 -2 57 -6 57 -17 0 -9 -10
-16 -22 -16 -19 -1 -17 -3 7 -9 l30 -8 -32 -1 -33 -1 0 -145 0 -145 -257 2
-257 3 -11 45 c-7 27 -8 52 -3 63 5 9 6 34 2 54 -6 32 -8 35 -16 18 -5 -13 -7
8 -4 55 3 50 2 63 -4 40 l-7 -35 -2 30 c-2 17 -4 39 -6 50 -2 11 -9 72 -15
135 -6 63 -16 162 -21 220 -6 58 -8 139 -6 180 3 43 2 60 -2 40 -6 -31 -8 -25
-16 45 -5 44 -9 148 -10 230 0 83 -2 130 -5 105 -5 -39 -7 -33 -14 45 -4 50
-9 116 -11 148 -1 33 -8 64 -15 70 -10 10 -10 7 -1 -10 17 -33 12 -42 -5 -10
-8 15 -12 32 -9 37 3 5 0 12 -6 16 -8 5 -9 3 -4 -7 8 -12 6 -12 -8 0 -20 16
-23 36 -4 25 6 -4 1 5 -13 20 -14 15 -34 32 -45 38 -11 6 -4 -4 15 -22 l35
-32 -45 33 c-49 36 -74 57 -51 44 9 -5 12 -4 7 3 -4 6 -14 8 -23 5 -11 -4 -14
-2 -9 5 9 14 -1918 12 -1948 -2 -14 -7 -17 -6 -12 2 4 7 5 12 2 12 -3 0 -8 -4
-11 -10z m1845 -279 c34 -33 35 -40 50 -191 6 -63 17 -176 25 -250 56 -506 61
-555 49 -547 -6 3 -8 -10 -5 -31 l5 -37 7 30 c6 28 7 28 8 5 3 -37 8 -85 20
-190 19 -168 21 -183 31 -285 6 -55 17 -163 25 -240 8 -77 22 -207 30 -290 8
-82 20 -195 25 -250 15 -149 20 -248 9 -205 -6 28 -7 24 -3 -18 l5 -54 -71 4
c-38 1 -70 0 -70 -4 0 -5 33 -8 74 -8 69 0 75 2 79 23 4 19 4 18 6 -5 l1 -28
-85 0 -85 0 0 35 c0 36 -28 214 -36 227 -2 4 0 9 6 13 5 3 10 14 9 23 0 14 -2
13 -8 -3 -7 -16 -9 -14 -15 16 -3 20 -4 45 0 55 4 12 3 15 -3 7 -11 -15 -58
131 -47 148 5 8 3 9 -6 4 -9 -6 -10 -2 -5 15 4 13 3 20 -2 17 -14 -9 -57 88
-48 104 5 8 4 11 0 6 -11 -9 -67 93 -61 110 3 7 0 15 -6 19 -7 4 -8 3 -4 -4 4
-7 5 -12 2 -12 -11 0 -47 71 -41 80 4 6 -10 26 -30 45 -21 18 -34 38 -31 43 3
5 -2 16 -12 23 -15 13 -16 12 -3 -3 7 -10 11 -18 8 -18 -2 0 -17 17 -33 38
-26 34 -26 36 -3 17 l24 -20 -19 23 c-11 12 -24 22 -30 22 -6 0 -27 21 -46 47
-19 25 -69 77 -112 116 -42 39 -74 75 -71 80 3 6 1 7 -5 3 -6 -4 -37 14 -69
40 -63 50 -89 75 -63 59 9 -6 4 0 -10 12 -14 13 -29 23 -34 23 -6 0 -1 -7 10
-16 14 -11 11 -11 -13 2 -18 10 -30 21 -27 25 2 4 -1 11 -7 15 -8 4 -9 3 -5
-4 11 -18 -6 -14 -34 8 -21 17 -21 19 -5 14 16 -5 17 -4 5 4 -8 6 -18 9 -22 6
-8 -5 -68 23 -68 32 0 3 5 2 12 -2 7 -4 8 -3 4 5 -4 6 -12 9 -17 5 -13 -7
-210 77 -203 87 3 5 -1 6 -9 3 -8 -3 -52 6 -98 20 -46 13 -97 27 -114 30 -16
4 -41 9 -55 11 -21 5 -154 22 -200 26 -8 1 1 5 20 9 31 7 32 7 8 9 l-28 1 0
440 0 440 743 2 742 3 -750 5 -750 5 753 3 754 2 28 -29z m1910 -1661 c13 -7
19 -19 16 -33 l-3 -22 -291 -3 c-286 -2 -291 -2 -302 18 -25 46 -9 49 286 50
175 0 281 -3 294 -10z m18 -152 l3 -28 -295 0 c-286 0 -296 1 -306 20 -6 11
-7 20 -3 19 20 -3 27 2 13 11 -10 7 87 9 285 7 l300 -2 3 -27z m-293 -95
c-172 -2 -293 -7 -299 -13 -7 -7 -6 -14 3 -22 10 -11 11 -9 5 5 -6 17 10 17
290 17 162 -1 298 -5 301 -10 3 -5 -2 -16 -11 -24 -13 -14 -53 -16 -294 -16
-240 0 -281 2 -294 16 -18 18 -18 17 -10 38 5 14 40 16 303 14 l296 -3 -290
-2z m277 -133 c-1 -5 1 -9 5 -9 20 3 23 -3 13 -21 -10 -19 -21 -20 -300 -20
-282 0 -290 1 -300 21 -23 42 -9 44 297 42 187 -2 287 -6 285 -13z"/>
<path d="M2137 4496 c-9 -9 -20 -16 -25 -16 -11 0 -3 -50 10 -67 7 -9 6 -14
-3 -17 -99 -32 -122 -37 -135 -32 -9 3 -12 2 -9 -4 7 -12 -43 -33 -62 -26 -7
3 -12 0 -10 -6 1 -6 -11 -15 -27 -21 -22 -7 -37 -6 -60 6 -36 18 -88 28 -80
15 3 -4 -3 -11 -13 -15 -10 -4 -38 -20 -63 -35 -24 -16 -50 -26 -57 -24 -7 3
-12 0 -10 -6 1 -6 -4 -13 -12 -16 -9 -3 -11 0 -6 8 5 9 4 11 -4 6 -6 -4 -9
-11 -7 -15 7 -11 -40 -35 -52 -27 -6 3 -14 1 -18 -5 -5 -8 -2 -10 7 -5 8 4 5
1 -5 -8 -10 -8 -22 -13 -26 -11 -8 5 -10 -5 -15 -68 -1 -26 2 -50 8 -54 6 -4
7 -1 2 6 -6 10 -3 11 15 1 22 -12 22 -13 -26 -61 -26 -26 -51 -46 -56 -43 -4
3 -5 -2 -2 -10 4 -11 -2 -19 -19 -25 -14 -5 -29 -16 -33 -23 -5 -9 -2 -8 11 2
17 14 18 14 7 -7 -7 -11 -24 -31 -39 -43 -16 -12 -21 -18 -13 -14 10 5 12 4 5
-3 -15 -15 -106 -24 -98 -9 3 6 -4 1 -17 -11 -12 -11 -23 -29 -24 -40 -2 -29
-48 -114 -80 -145 -16 -16 -26 -32 -22 -35 3 -4 6 0 6 7 0 7 3 11 6 7 3 -3 -4
-21 -17 -39 -15 -20 -24 -47 -24 -69 0 -21 -3 -35 -7 -33 -5 3 -8 3 -8 -1 0
-8 57 -31 85 -34 12 -1 12 -6 0 -41 -8 -22 -14 -42 -15 -45 0 -3 0 -13 -1 -22
0 -16 -2 -15 -10 2 -8 17 -9 17 -4 -5 2 -14 2 -62 -2 -108 l-6 -82 -38 -12
-38 -11 2 -206 c2 -194 3 -206 21 -203 10 2 15 -1 12 -6 -7 -12 45 -3 61 10 9
7 14 6 17 -3 2 -8 9 -33 16 -55 7 -23 9 -48 5 -54 -6 -9 -4 -11 5 -5 10 6 12
3 8 -13 -4 -12 -3 -20 2 -17 4 2 20 -25 35 -61 27 -63 27 -67 12 -94 -24 -40
-21 -63 14 -125 17 -30 28 -59 25 -64 -4 -5 -1 -13 5 -17 8 -5 9 -3 4 6 -6 9
-4 11 4 6 7 -5 10 -14 7 -22 -3 -8 0 -13 7 -11 7 1 12 -8 12 -20 0 -12 5 -26
9 -30 5 -4 6 -2 2 5 -4 6 -5 12 -2 12 7 0 41 -62 41 -76 0 -6 6 -18 13 -26 17
-21 85 -8 109 20 l18 21 24 -32 25 -32 -26 23 c-19 17 -28 20 -33 11 -5 -7 -4
-10 2 -6 6 4 18 -2 28 -13 9 -10 22 -17 28 -15 7 3 35 -16 62 -41 28 -25 43
-42 35 -38 -8 4 -11 3 -7 -1 4 -5 14 -10 22 -11 26 -4 64 -39 64 -59 l0 -20
-9 20 c-6 15 -7 11 -7 -17 1 -21 4 -33 8 -27 6 10 20 -16 24 -41 1 -13 17 -30
28 -30 6 0 2 7 -9 16 -10 8 4 3 31 -11 56 -30 81 -50 50 -40 -15 5 -17 4 -6
-3 8 -6 21 -8 29 -4 10 3 13 1 8 -6 -5 -8 -1 -10 10 -5 13 5 15 3 9 -7 -5 -9
-4 -11 3 -6 15 9 53 -11 49 -26 -1 -6 5 -13 13 -15 13 -4 13 -3 0 6 -8 6 -10
11 -5 11 13 -1 46 -26 40 -32 -2 -2 19 -4 47 -3 35 1 54 6 63 18 6 9 14 14 17
11 3 -2 3 7 1 21 -6 29 -3 29 67 13 41 -9 48 -14 34 -20 -15 -6 -13 -7 6 -3
14 2 61 2 104 -2 l79 -6 15 -38 14 -37 189 -2 c176 -1 190 1 206 19 9 11 19
18 22 16 3 -2 6 10 6 25 0 15 -3 26 -6 24 -4 -2 -10 3 -13 11 -3 9 0 17 7 20
72 22 90 26 103 21 8 -3 13 -2 10 3 -3 5 19 18 50 30 65 24 68 25 58 9 -4 -7
-3 -8 5 -4 6 4 8 12 5 18 -5 8 -1 9 10 5 9 -4 15 -3 12 2 -9 15 22 21 33 7 6
-7 8 -15 6 -18 -3 -3 24 -4 60 -3 38 1 71 7 78 15 10 10 7 10 -13 1 -24 -12
-24 -11 -5 4 11 8 26 13 34 10 9 -3 12 -3 8 1 -8 8 7 20 76 58 27 14 52 24 56
22 4 -3 13 0 21 6 12 8 11 9 -5 4 -14 -5 -12 0 10 18 17 14 35 25 42 26 6 0
15 5 19 12 4 6 3 8 -3 5 -7 -5 -8 4 -3 28 6 28 4 37 -14 52 l-21 18 20 -25 20
-25 -28 24 -27 25 47 48 c61 62 71 62 13 1 l-45 -48 47 44 c26 24 45 48 42 52
-2 4 16 35 41 69 34 43 53 60 68 59 l22 -2 -22 -4 c-21 -4 -63 -51 -63 -70 0
-4 10 7 22 25 16 26 26 33 44 29 13 -2 21 0 18 4 -3 5 7 14 23 20 15 5 36 20
46 32 10 12 15 15 11 7 -4 -8 -3 -12 1 -7 5 4 9 16 10 26 2 25 66 131 76 126
4 -3 10 2 13 11 3 9 2 12 -5 8 -6 -3 -3 8 6 25 9 18 19 30 23 27 4 -2 8 18 10
46 2 37 -2 56 -15 71 -18 21 -18 21 2 7 18 -14 19 -13 8 1 -8 10 -23 14 -42
11 -29 -4 -30 -4 -21 29 5 19 13 52 19 74 5 22 13 75 17 118 6 70 9 78 25 74
11 -3 17 -2 14 3 -4 7 19 22 38 24 4 1 9 87 10 193 1 105 -1 189 -4 187 -4 -2
-15 6 -25 19 -19 21 -19 21 1 7 18 -14 19 -14 7 2 -13 16 -31 15 -83 -7 -19
-7 -33 27 -18 42 6 6 5 23 -2 42 -6 17 -13 30 -15 28 -3 -2 0 -17 6 -32 6 -15
9 -30 6 -32 -2 -2 -14 26 -26 64 -13 37 -34 90 -47 116 l-24 48 21 26 c24 31
25 54 4 95 -9 16 -11 27 -5 24 7 -4 8 -1 5 8 -3 9 -9 14 -13 11 -4 -2 -15 10
-25 28 -13 24 -13 27 -2 13 9 -11 16 -16 16 -10 0 5 -10 20 -21 34 -11 14 -18
19 -14 13 3 -7 4 -13 1 -13 -7 0 -79 132 -79 145 0 13 -12 16 -62 16 -49 0
-65 -3 -59 -13 3 -4 2 -13 -1 -18 -7 -12 -102 70 -97 83 1 5 -2 6 -7 3 -5 -3
-15 2 -22 11 -12 14 -12 16 0 8 10 -5 12 -4 7 4 -4 6 -11 9 -16 6 -5 -3 -21 6
-37 21 -15 14 -22 22 -14 18 9 -5 12 -3 7 5 -4 6 -11 9 -16 6 -5 -3 -18 0 -28
6 -16 10 -19 20 -15 49 4 30 1 42 -18 60 -13 13 -17 19 -9 15 13 -8 13 -7 1 8
-15 18 -26 23 -16 7 3 -5 4 -10 1 -10 -8 0 -76 42 -76 47 0 2 5 1 12 -3 7 -4
8 -3 4 4 -4 6 -13 9 -20 6 -18 -7 -117 56 -109 69 3 6 1 7 -5 3 -6 -4 -22 -2
-34 5 -25 13 -93 31 -84 22 3 -4 -3 -12 -14 -20 -11 -8 -20 -25 -20 -39 0 -27
-17 -31 -66 -14 -16 5 -73 16 -128 24 -54 8 -102 18 -107 23 -5 5 -10 20 -12
33 l-4 25 -190 3 c-162 3 -193 1 -206 -12z m513 -847 c68 -22 140 -56 140 -65
0 -3 -5 -2 -12 2 -7 4 -8 3 -4 -4 4 -6 13 -9 20 -6 24 9 160 -116 201 -185 6
-10 4 -12 -6 -7 -8 4 -4 -1 8 -11 63 -52 119 -289 96 -404 -5 -28 -7 -30 -14
-14 -6 13 -7 7 -3 -16 7 -47 -14 -129 -28 -108 -7 10 -8 8 -3 -8 5 -20 -27
-103 -41 -103 -3 0 -2 5 2 12 4 7 3 8 -5 4 -6 -4 -8 -12 -5 -18 4 -6 -4 -20
-17 -30 -13 -11 -17 -16 -10 -12 9 4 6 -5 -7 -24 -34 -47 -135 -133 -150 -127
-7 2 -10 0 -7 -5 8 -12 -72 -53 -87 -44 -6 4 -8 3 -4 -4 12 -20 -153 -62 -249
-62 -87 0 -262 41 -251 59 3 4 -5 7 -17 7 -12 -1 -21 4 -20 11 2 7 -4 10 -12
7 -12 -5 -105 51 -105 63 0 2 5 1 10 -2 16 -10 11 1 -7 16 -11 10 -14 10 -9 2
13 -23 -8 -13 -41 19 -31 30 -45 57 -23 43 16 -10 11 1 -7 16 -14 12 -16 12
-9 -1 15 -29 -35 35 -60 78 -14 23 -23 49 -20 57 3 8 0 14 -7 12 -7 -1 -12 9
-12 25 1 14 -4 24 -9 21 -5 -4 -6 6 -2 23 4 18 3 24 -2 16 -7 -11 -10 -9 -14
6 -3 11 -2 24 3 29 5 5 5 34 -1 68 l-9 60 4 -65 c3 -57 2 -61 -7 -30 -17 57 3
291 21 261 4 -6 7 5 7 23 0 36 56 157 82 179 13 10 14 9 7 -2 -5 -9 -4 -12 3
-7 6 4 9 12 6 20 -6 16 106 128 123 122 7 -3 15 0 19 6 5 7 2 8 -6 3 -9 -5
-11 -4 -6 4 17 27 189 99 276 115 57 10 217 -4 280 -25z"/>
<path d="M2392 3240 c-13 -6 -29 -7 -34 -3 -7 3 -8 1 -4 -5 4 -7 2 -13 -3 -13
-6 -1 -17 -2 -23 -3 -7 0 -14 -7 -14 -13 -1 -7 -2 -17 -3 -23 0 -5 -7 -10 -15
-10 -8 0 -18 -5 -22 -12 -4 -6 -3 -8 3 -5 5 3 2 -16 -7 -44 -17 -49 -19 -144
-4 -157 4 -4 4 -1 -1 7 -6 10 -4 12 4 7 7 -5 10 -14 7 -22 -3 -8 0 -13 6 -11
6 1 13 -4 16 -12 3 -9 0 -11 -9 -6 -8 5 -1 -6 15 -23 30 -32 43 -41 31 -22 -9
14 7 12 27 -4 10 -7 15 -15 12 -18 -3 -4 0 -9 7 -14 8 -5 10 -3 4 6 -6 10 -2
12 16 7 13 -4 31 -7 39 -8 8 0 4 -4 -10 -8 -18 -6 -10 -8 29 -8 29 1 45 4 35
7 -14 5 -9 9 21 15 22 5 45 9 52 10 6 0 15 4 20 9 5 5 2 6 -7 1 -13 -8 -13 -7
-1 8 16 20 36 23 25 5 -4 -7 2 -4 14 6 23 20 29 32 11 20 -7 -4 -10 -1 -7 7 3
8 10 14 15 14 6 0 15 4 20 9 5 5 2 6 -6 1 -9 -5 -12 -3 -9 6 3 8 11 14 18 14
7 0 15 7 17 15 3 11 2 12 -4 3 -5 -7 -8 25 -8 77 1 49 -2 87 -6 85 -4 -3 -10
2 -13 11 -3 8 -2 12 4 9 6 -3 10 -4 10 0 0 3 -12 10 -27 16 -22 8 -25 12 -13
21 13 8 12 9 -2 5 -18 -6 -52 25 -41 37 4 4 -1 4 -11 0 -11 -4 -17 -3 -14 2 8
12 -131 16 -160 4z"/>
<path d="M5680 3761 c-8 -5 -17 -8 -21 -5 -4 2 -13 -4 -20 -13 -8 -9 -9 -14
-3 -10 8 4 13 -4 16 -23 5 -31 1 -34 -87 -61 -22 -6 -56 -20 -76 -30 -32 -16
-39 -16 -55 -4 -29 22 -46 18 -116 -21 -34 -20 -79 -45 -98 -56 -19 -11 -43
-28 -52 -40 -10 -11 -18 -16 -18 -10 0 6 12 20 26 31 15 12 22 21 17 21 -19 0
-48 -42 -48 -70 0 -15 3 -26 6 -24 4 2 13 -4 22 -14 14 -16 10 -22 -46 -82
-33 -36 -54 -56 -46 -45 13 18 13 19 -3 6 -10 -7 -15 -17 -12 -22 3 -5 0 -17
-5 -27 -7 -14 -18 -18 -39 -14 -21 3 -36 -2 -50 -16 -11 -11 -23 -17 -27 -14
-3 4 -3 -2 1 -12 5 -13 4 -17 -3 -13 -6 4 -10 0 -9 -8 0 -7 -2 -13 -6 -12 -8
2 -37 -34 -38 -47 0 -6 7 -1 16 10 14 18 14 18 3 -6 -6 -14 -21 -33 -33 -43
-11 -10 -15 -16 -8 -12 10 5 9 -2 -3 -25 -11 -22 -14 -41 -9 -59 4 -14 8 -29
8 -33 1 -3 5 -10 10 -15 5 -4 6 -3 2 4 -4 8 1 11 13 10 15 -1 19 -7 16 -22 -2
-11 -4 -27 -5 -35 -1 -10 -4 -9 -9 5 -5 13 -8 0 -8 -35 1 -92 -8 -133 -31
-141 -34 -13 -40 -39 -43 -171 -2 -133 1 -148 45 -169 12 -6 6 1 -11 16 -18
15 -33 31 -33 37 0 6 8 0 19 -13 11 -14 30 -23 46 -24 24 0 30 -7 51 -65 14
-35 22 -70 19 -78 -2 -7 -1 -11 4 -8 4 3 13 -6 20 -21 9 -20 9 -29 -2 -42 -16
-18 -29 -73 -16 -65 10 6 42 -54 34 -66 -3 -5 0 -12 6 -16 8 -5 9 -3 4 6 -6 9
-4 11 4 6 7 -5 10 -14 7 -22 -3 -8 0 -13 7 -11 7 1 12 -9 13 -23 1 -33 21 -70
36 -67 7 1 12 -4 13 -10 0 -7 3 -13 8 -13 4 0 16 0 27 0 10 0 28 9 38 20 18
20 19 19 58 -23 l39 -42 -45 40 -45 40 39 -42 c22 -23 42 -40 46 -38 3 2 26
-10 51 -28 38 -28 44 -37 43 -67 -1 -36 21 -74 38 -64 11 7 170 -85 163 -96
-5 -7 39 -3 65 7 8 4 18 7 22 7 3 1 10 5 15 10 5 5 2 6 -6 1 -10 -6 -12 -4 -7
4 4 7 17 9 29 6 19 -5 19 -4 -3 10 l-25 15 30 -6 c17 -3 43 -10 59 -15 16 -5
47 -9 70 -9 48 0 61 -7 71 -38 7 -23 7 -23 163 -20 146 3 157 4 154 22 -2 10
1 15 7 12 5 -4 13 -1 17 5 4 7 3 9 -2 6 -6 -3 -15 3 -22 13 -10 17 -9 20 12
26 14 3 30 3 37 -2 7 -4 9 -3 5 4 -8 13 59 36 75 26 7 -4 9 -3 6 3 -7 12 60
46 74 37 5 -3 7 -9 4 -14 -3 -5 0 -12 6 -16 7 -4 9 -3 6 3 -4 6 11 9 38 8 24
0 42 2 39 7 -6 10 54 40 66 33 5 -3 12 0 16 6 5 8 2 10 -7 5 -8 -4 -5 0 6 8
11 9 25 14 33 11 8 -3 10 0 6 7 -5 8 -2 9 9 5 9 -3 19 -1 23 5 5 7 2 8 -6 3
-9 -6 -11 -4 -6 4 5 7 14 10 21 7 19 -7 31 14 31 51 -1 17 3 29 7 26 5 -3 7
-14 4 -24 -3 -11 -1 -17 4 -13 18 11 8 35 -21 52 -23 14 -27 21 -18 30 7 7 17
12 23 12 16 0 57 45 49 53 -10 10 17 38 29 30 5 -3 7 -2 4 4 -11 17 23 53 51
54 32 1 84 29 90 49 2 9 -3 7 -13 -5 -10 -13 -8 -5 6 22 12 23 27 39 32 36 6
-3 7 -1 3 5 -9 15 12 54 24 47 6 -3 7 0 5 7 -3 8 2 22 10 33 15 19 16 19 4 -5
-9 -20 -9 -23 1 -13 7 6 13 33 13 59 0 40 -4 51 -27 69 -19 15 -25 28 -22 46
2 13 5 31 6 39 1 10 4 9 9 -5 5 -12 6 8 4 46 -5 53 -2 69 11 80 48 41 47 35
45 185 0 79 -5 142 -9 139 -5 -3 -12 0 -15 5 -4 6 -19 9 -34 5 -25 -5 -28 -3
-39 42 -7 27 -24 73 -38 103 -22 48 -23 55 -9 67 8 7 10 8 5 1 -6 -7 -10 -16
-10 -22 0 -5 6 -1 14 9 16 22 7 66 -25 120 -11 19 -18 39 -15 44 4 5 1 13 -5
17 -8 5 -10 2 -5 -7 4 -8 0 -5 -8 6 -9 11 -15 24 -12 31 2 6 0 17 -6 25 -7 11
-8 9 -3 -6 4 -14 3 -17 -4 -10 -6 6 -12 20 -14 32 -6 38 -25 52 -59 43 -16 -5
-35 -16 -42 -25 -10 -14 -17 -10 -51 27 l-40 43 43 -40 c23 -21 42 -36 42 -32
0 12 -71 71 -87 73 -22 4 -43 25 -36 38 3 6 3 8 -2 4 -16 -15 -45 13 -45 42 0
17 -9 38 -22 50 -21 20 -21 21 -3 15 16 -5 17 -5 5 3 -8 6 -18 8 -22 6 -5 -3
-30 8 -56 24 -97 61 -127 74 -163 70 -31 -4 -34 -7 -31 -32 3 -23 0 -27 -15
-23 -17 5 -45 11 -100 21 -11 3 -42 8 -66 11 -42 7 -64 25 -52 44 6 11 -7 13
-145 17 -70 2 -131 0 -140 -5z m324 -496 c88 -15 189 -52 180 -66 -3 -5 3 -6
12 -2 13 5 15 3 9 -7 -5 -9 -4 -11 4 -6 6 4 24 0 39 -10 60 -39 183 -170 130
-138 -9 5 -9 2 1 -9 16 -20 26 -23 15 -4 -6 9 -5 9 7 0 20 -16 72 -123 65
-131 -3 -3 -6 1 -6 8 0 7 -2 11 -5 8 -3 -2 1 -22 9 -44 8 -21 15 -32 16 -24 0
11 4 10 12 -5 25 -42 22 -333 -3 -294 -5 9 -9 10 -9 2 0 -6 4 -14 9 -18 6 -3
5 -21 -4 -44 -18 -51 -74 -160 -88 -168 -6 -4 -7 -1 -2 7 5 9 4 11 -4 6 -6 -4
-8 -12 -5 -18 10 -16 -118 -132 -186 -167 -83 -43 -138 -62 -145 -50 -4 5 -12
9 -18 9 -8 0 -8 -3 1 -9 22 -13 -22 -21 -126 -21 -94 0 -186 16 -177 30 3 5
-3 6 -13 3 -19 -5 -128 42 -139 60 -4 6 -1 7 8 2 8 -5 11 -4 6 1 -5 5 -16 9
-25 9 -9 0 -17 5 -17 12 0 6 -4 15 -9 20 -5 5 -6 3 -2 -4 4 -7 3 -13 -1 -13
-10 0 -103 96 -119 120 -5 9 -1 7 9 -3 23 -26 22 -11 -2 19 -10 13 -21 21 -25
17 -13 -13 -75 146 -90 233 -14 80 -14 99 0 184 22 138 74 241 170 337 49 49
80 73 90 69 8 -3 12 -1 9 4 -14 22 197 104 228 88 10 -5 30 -7 45 -5 24 4 23
4 -8 7 l-35 3 35 7 c52 11 68 11 154 -5z"/>
<path d="M5905 2899 c-27 -5 -60 -7 -72 -4 -12 3 -25 1 -28 -5 -3 -6 1 -7 12
-4 17 5 17 5 0 -6 -9 -6 -21 -9 -25 -6 -4 2 -16 -2 -27 -10 -10 -8 -14 -14 -9
-14 6 0 14 3 20 8 5 4 1 -1 -9 -10 -10 -9 -26 -25 -35 -35 -9 -10 -14 -14 -9
-9 4 6 7 14 7 20 0 5 -6 1 -14 -9 -8 -11 -12 -23 -10 -27 3 -4 0 -16 -6 -25
-10 -16 -11 -16 -5 2 3 11 2 16 -2 11 -9 -9 -11 -196 -2 -190 3 2 11 -9 18
-24 11 -25 10 -26 -4 -8 -8 11 -15 15 -15 9 0 -6 7 -16 15 -23 8 -7 15 -9 15
-5 0 4 18 -9 41 -30 23 -20 54 -41 71 -47 23 -8 27 -13 16 -20 -9 -6 -5 -7 12
-2 37 10 62 11 88 2 14 -5 30 -4 40 2 14 9 12 10 -8 5 -22 -5 -23 -4 -7 5 10
7 25 9 33 6 10 -4 12 -2 8 6 -5 8 -2 9 9 5 9 -3 19 -1 23 5 5 7 2 8 -7 3 -11
-6 -11 -5 -3 4 6 7 19 14 29 15 10 1 20 11 21 21 1 10 8 23 15 29 9 8 10 8 4
-3 -5 -9 -4 -12 3 -7 6 4 8 14 5 23 -4 11 -3 14 5 9 8 -4 10 -2 6 8 -3 8 -1
23 6 33 9 16 10 15 5 -7 -5 -20 -4 -22 5 -8 6 10 7 26 2 40 -9 26 -8 51 2 88
6 19 5 21 -3 10 -6 -9 -11 -10 -11 -3 0 6 -3 20 -6 30 -5 15 -4 16 6 3 10 -13
11 -13 7 0 -2 8 -10 14 -17 12 -6 -1 -14 7 -17 18 -3 11 -9 20 -14 20 -5 0 -9
5 -9 11 0 5 5 7 12 3 7 -4 8 -3 4 5 -4 6 -11 9 -15 6 -9 -5 -53 30 -51 40 1 4
-2 10 -6 13 -4 4 -3 1 1 -7 6 -11 4 -13 -9 -8 -10 4 -20 7 -22 7 -3 0 -3 4 0
9 3 4 -7 6 -22 4 -23 -3 -24 -2 -7 6 25 12 7 12 -60 0z"/>
<path d="M3895 2844 c-3 -25 -8 -53 -10 -62 -17 -79 -18 -76 13 -99 17 -13 33
-36 37 -53 7 -33 -2 -106 -12 -96 -3 3 -12 -2 -19 -12 -19 -24 -17 -40 1 -16
9 10 0 -10 -20 -46 -19 -36 -40 -64 -46 -62 -6 1 -8 -2 -4 -8 8 -13 -14 -52
-25 -45 -6 3 -7 -1 -4 -9 5 -14 66 -16 535 -16 464 0 529 2 529 15 0 8 -8 15
-19 15 -26 0 -73 40 -67 57 3 8 2 12 -3 9 -16 -10 -21 25 -21 157 0 114 3 136
20 165 11 17 26 32 34 32 8 0 12 7 10 18 -2 9 0 31 5 47 8 27 9 28 10 6 1 -13
4 -22 7 -18 3 3 3 19 -1 36 l-7 31 -468 0 -468 0 -7 -46z"/>
</g>
</svg>
