<?xml version="1.0" standalone="no"?>
<!DOCTYPE svg PUBLIC "-//W3C//DTD SVG 20010904//EN"
 "http://www.w3.org/TR/2001/REC-SVG-20010904/DTD/svg10.dtd">
<svg version="1.0" xmlns="http://www.w3.org/2000/svg"
 width="805.000000pt" height="805.000000pt" viewBox="0 0 805.000000 805.000000"
 preserveAspectRatio="xMidYMid meet">

<g transform="translate(0.000000,805.000000) scale(0.100000,-0.100000)"
fill="#000000" stroke="none">
<path d="M2975 8005 c-543 -170 -958 -396 -1556 -846 -152 -115 -156 -119
-186 -186 -74 -162 -106 -336 -106 -583 0 -257 36 -448 113 -603 40 -79 40
-79 22 -106 -84 -122 -135 -362 -135 -641 0 -253 44 -476 122 -618 l30 -53
-34 -62 c-94 -174 -136 -474 -112 -797 l8 -105 -568 -350 -568 -351 -3 -686
c-2 -648 -1 -687 15 -692 93 -28 381 -107 393 -108 8 -1 234 134 502 299 l487
301 318 -92 318 -91 5 -445 5 -444 130 -37 c71 -21 168 -48 215 -60 l85 -22
155 95 c85 53 305 188 489 302 243 150 340 204 355 200 12 -3 197 -56 411
-117 l390 -112 5 -445 5 -444 180 -52 c104 -31 201 -53 229 -54 47 0 69 12
570 322 287 177 654 403 816 503 537 332 1582 976 1775 1095 l190 117 3 680 2
679 -612 175 -613 176 -6 139 c-11 233 -52 417 -121 545 l-31 56 42 84 c151
307 148 887 -6 1196 l-36 71 21 34 c134 220 172 710 81 1065 -10 43 -38 116
-62 163 l-42 85 -105 42 c-515 206 -1764 552 -2495 692 -335 64 -802 132 -904
131 -25 -1 -109 -21 -186 -45z m372 -235 c383 -49 908 -147 1308 -245 641
-156 1722 -477 1719 -511 -1 -18 -366 -268 -634 -436 -261 -163 -679 -399
-892 -504 l-77 -38 -133 28 c-837 172 -1723 409 -2448 653 -187 63 -527 185
-599 215 l-35 14 80 60 c359 271 686 466 1026 610 143 61 469 173 505 174 12
0 93 -9 180 -20z m3219 -1037 c8 -49 14 -149 14 -223 0 -173 -34 -400 -60
-400 -4 0 -40 35 -79 77 -51 55 -71 84 -71 103 0 55 115 434 157 513 8 16 17
26 20 23 4 -3 12 -45 19 -93z m-4881 -12 c590 -219 1307 -437 2000 -610 243
-60 752 -176 928 -211 58 -12 64 -18 48 -49 -20 -36 -51 -220 -61 -359 -13
-167 -1 -375 30 -515 11 -50 20 -95 20 -100 0 -11 -21 -8 -280 49 -268 58
-627 149 -870 219 -599 173 -1445 487 -1961 728 l-97 45 -21 57 c-71 190 -76
564 -11 798 6 20 17 37 23 37 7 0 121 -40 252 -89z m4662 47 c-24 -63 -90
-282 -108 -358 -12 -52 -27 -101 -33 -109 -26 -33 -653 -463 -791 -541 l-40
-23 -77 56 c-43 30 -130 81 -193 113 l-115 57 157 85 c346 185 764 439 1043
631 145 100 166 112 157 89z m6 -714 l78 -81 -43 -39 c-123 -113 -521 -417
-768 -586 -152 -105 -443 -288 -448 -283 -2 2 22 42 53 89 70 105 155 272 184
359 22 65 22 65 114 123 155 97 475 312 612 411 71 51 132 92 135 91 3 -2 40
-39 83 -84z m-1300 -304 c143 -71 223 -130 219 -160 -8 -70 -189 -386 -281
-490 l-31 -35 7 75 c18 174 3 452 -33 628 -4 22 -3 32 6 32 6 0 57 -23 113
-50z m1501 -287 c48 -166 22 -680 -36 -691 -20 -4 -148 142 -148 169 0 69 150
539 172 539 3 0 9 -8 12 -17z m-4906 -74 c800 -301 1885 -611 2802 -800 113
-23 209 -46 213 -49 4 -4 3 -19 -3 -34 -22 -58 -50 -228 -60 -364 -13 -167 -2
-357 30 -513 12 -56 19 -103 17 -106 -6 -5 -465 96 -709 158 -743 186 -1652
504 -2354 826 -140 64 -142 65 -159 108 -64 170 -81 518 -34 730 15 69 31 125
36 125 2 0 102 -37 221 -81z m4666 -65 c-20 -60 -51 -167 -69 -239 l-32 -130
-114 -83 c-131 -96 -478 -330 -623 -421 l-99 -62 -31 23 c-77 56 -139 94 -238
144 -60 30 -108 58 -108 62 0 4 25 20 56 35 270 133 875 498 1209 730 44 31
81 54 82 53 2 -2 -13 -52 -33 -112z m40 -621 l76 -81 -138 -115 c-266 -222
-668 -512 -980 -707 -73 -46 -135 -81 -137 -78 -3 2 22 45 54 94 66 99 146
256 182 353 22 62 25 66 103 115 147 92 549 363 646 435 52 38 100 69 106 68
6 -1 46 -39 88 -84z m-1302 -299 c84 -42 197 -113 216 -136 26 -32 -98 -276
-230 -455 -34 -46 -66 -83 -71 -83 -5 0 -6 21 -3 48 21 181 13 428 -19 583 -8
39 -15 77 -15 84 0 18 17 12 122 -41z m1514 -366 c8 -51 14 -151 14 -223 0
-172 -34 -395 -60 -395 -4 0 -40 34 -79 75 -47 50 -71 83 -71 99 0 78 157 562
176 543 3 -3 12 -47 20 -99z m-4926 7 c774 -295 2058 -658 2943 -831 82 -16
88 -19 82 -38 -85 -289 -93 -680 -20 -968 6 -24 4 -28 -15 -28 -66 0 -742 162
-1095 261 -545 155 -1385 462 -1895 693 -194 87 -200 92 -222 156 -67 196 -72
555 -11 773 14 51 19 58 37 54 12 -3 100 -35 196 -72z m4710 42 c0 -2 -14 -43
-31 -93 -16 -49 -47 -156 -69 -237 l-38 -149 -123 -90 c-230 -168 -687 -468
-711 -468 -8 0 -40 20 -73 45 -33 25 -115 73 -182 107 -68 35 -123 65 -123 68
0 3 62 39 138 80 184 99 436 243 607 348 150 92 484 311 550 361 36 27 55 37
55 28z m73 -817 c-137 -121 -410 -336 -614 -482 -252 -181 -626 -424 -637
-413 -2 2 19 37 47 79 69 102 153 264 186 357 26 75 27 75 98 119 118 73 565
373 667 448 l95 71 83 -86 c46 -47 80 -89 75 -93z m-5223 -88 c7 -20 26 -63
43 -95 30 -57 34 -60 136 -112 328 -164 941 -407 1514 -601 558 -188 1054
-320 1686 -449 l223 -45 567 214 c311 118 575 218 586 222 47 16 -17 -28 -205
-143 -107 -66 -389 -239 -627 -386 l-431 -266 -2141 612 c-1177 337 -2140 615
-2138 620 4 12 760 476 768 471 4 -2 13 -21 19 -42z m3827 -112 c79 -37 253
-145 253 -156 0 -3 -12 -36 -26 -72 -50 -127 -123 -247 -269 -446 -8 -11 -17
-17 -20 -15 -3 3 0 65 6 138 12 146 0 369 -26 496 -16 77 -18 95 -9 95 3 0 44
-18 91 -40z m2243 -769 l0 -138 220 -63 c122 -35 217 -67 213 -71 -17 -16
-1034 -639 -1043 -639 -6 0 -10 121 -10 335 l0 336 78 49 c178 114 528 329
535 329 4 1 7 -61 7 -138z m-6296 -362 c103 -29 185 -56 183 -62 -3 -9 -381
-247 -392 -247 -3 0 -5 84 -5 186 0 155 2 185 14 181 8 -3 98 -29 200 -58z
m4908 -508 l3 -134 213 -61 c168 -47 210 -62 200 -72 -7 -7 -242 -154 -523
-326 -280 -173 -546 -337 -590 -365 -44 -27 -90 -55 -102 -62 l-23 -12 0 343
0 343 237 145 c129 80 310 191 402 247 91 56 169 99 173 95 4 -4 9 -68 10
-141z m-2844 -82 c153 -44 181 -54 170 -66 -22 -21 -371 -233 -385 -233 -10 0
-13 39 -13 173 0 96 3 177 7 180 4 4 14 5 22 3 9 -3 98 -28 199 -57z"/>
<path d="M3014 7555 c-338 -112 -579 -230 -926 -452 -82 -52 -148 -98 -148
-103 0 -19 809 -277 1300 -413 417 -116 1173 -297 1451 -348 l66 -12 174 93
c190 101 470 260 614 348 181 111 445 284 445 292 0 4 -10 10 -22 13 -13 3
-106 31 -208 62 -428 131 -1111 312 -1455 385 -341 73 -778 146 -1091 183 -32
4 -78 -7 -200 -48z m1771 -540 c72 -20 134 -40 138 -44 7 -7 -273 -172 -484
-284 l-86 -45 -159 33 c-172 36 -547 123 -578 135 -14 5 22 27 150 93 93 47
238 124 323 170 l153 85 207 -53 c113 -29 265 -70 336 -90z"/>
<path d="M2038 6433 c-33 -74 -66 -223 -78 -349 -11 -126 -5 -264 14 -288 10
-13 269 -114 530 -206 65 -23 123 -43 130 -46 8 -3 11 47 12 183 0 205 16 307
68 435 14 34 22 65 18 69 -4 3 -56 23 -117 44 -60 21 -211 75 -334 120 l-223
83 -20 -45z"/>
<path d="M2031 5066 c-50 -135 -75 -285 -74 -461 0 -71 3 -139 6 -150 5 -14
33 -31 94 -54 147 -56 574 -211 581 -211 4 0 7 80 7 178 0 211 22 334 89 493
6 13 -16 24 -116 59 -68 23 -219 78 -336 121 -118 44 -217 79 -222 79 -5 0
-18 -24 -29 -54z"/>
<path d="M2031 3713 c-53 -146 -86 -379 -74 -531 3 -46 12 -89 19 -97 12 -12
281 -115 546 -209 l123 -43 0 181 c1 199 14 287 65 428 16 43 25 80 20 83 -5
3 -59 23 -122 44 -62 22 -212 76 -332 120 -121 45 -220 81 -222 81 -1 0 -11
-26 -23 -57z"/>
</g>
</svg>
