<?xml version="1.0" standalone="no"?>
<!DOCTYPE svg PUBLIC "-//W3C//DTD SVG 20010904//EN"
 "http://www.w3.org/TR/2001/REC-SVG-20010904/DTD/svg10.dtd">
<svg version="1.0" xmlns="http://www.w3.org/2000/svg"
 width="1181.000000pt" height="1181.000000pt" viewBox="0 0 1181.000000 1181.000000"
 preserveAspectRatio="xMidYMid meet">
<metadata>
Created by potrace 1.16, written by Peter Selinger 2001-2019
</metadata>
<g transform="translate(0.000000,1181.000000) scale(0.100000,-0.100000)"
fill="#000000" stroke="none">
<path d="M4949 9924 c-124 -33 -367 -119 -499 -176 -374 -163 -683 -350 -1132
-685 -148 -111 -170 -131 -197 -182 -71 -133 -111 -351 -111 -601 0 -260 39
-463 115 -609 l34 -64 -44 -91 c-75 -158 -105 -324 -105 -591 0 -250 37 -446
110 -590 l39 -75 -40 -77 c-81 -161 -114 -365 -107 -661 3 -108 7 -203 9 -210
3 -8 -213 -147 -576 -371 l-580 -357 0 -679 0 -678 218 -62 218 -63 77 47
c111 68 218 134 577 356 176 109 325 198 331 198 7 0 152 -40 323 -88 l311
-89 2 -444 3 -445 205 -58 c113 -33 212 -59 220 -59 9 0 58 26 110 58 52 32
271 167 487 300 l392 242 410 -118 411 -117 2 -445 3 -444 200 -58 c110 -32
209 -59 220 -60 11 -1 126 64 255 144 129 80 402 247 605 373 917 565 2185
1347 2333 1438 l162 101 0 678 c0 373 -2 678 -5 678 -8 0 -1119 317 -1176 336
l-46 15 -7 125 c-13 246 -49 415 -115 541 l-40 75 29 47 c92 149 145 482 121
763 -18 216 -52 356 -118 477 -30 56 -32 65 -20 80 22 24 52 88 75 161 106
325 85 830 -45 1089 l-38 75 -95 39 c-388 159 -1478 475 -2140 621 -396 87
-859 166 -1166 199 -117 13 -126 12 -205 -9z m308 -269 c667 -85 1485 -271
2398 -545 213 -64 587 -189 598 -199 11 -11 -96 -89 -378 -276 -352 -233 -681
-427 -1058 -624 l-157 -83 -203 42 c-778 160 -1630 388 -2362 633 -272 91
-645 228 -645 236 0 8 232 175 370 268 359 240 710 411 1095 533 66 21 125 39
132 39 7 1 101 -10 210 -24z m3192 -1044 c22 -171 9 -441 -30 -575 l-11 -38
-40 38 c-22 22 -57 60 -79 86 l-40 47 30 118 c50 195 139 444 152 421 3 -7 12
-51 18 -97z m-4917 13 c799 -299 1799 -585 2773 -794 132 -28 241 -53 243 -55
2 -2 -6 -32 -16 -67 -65 -210 -74 -580 -21 -842 11 -54 18 -100 16 -102 -5 -6
-363 72 -625 136 -276 68 -547 143 -808 225 -679 214 -1735 636 -1772 709 -38
74 -72 291 -72 453 1 154 44 413 69 413 5 0 101 -34 213 -76z m4695 33 c-28
-74 -80 -245 -103 -341 l-29 -119 -113 -85 c-115 -85 -505 -349 -644 -435
l-76 -48 -77 55 c-43 31 -129 81 -192 112 l-113 57 72 40 c483 262 884 505
1158 700 107 77 126 87 117 64z m6 -713 l78 -82 -71 -61 c-104 -90 -291 -237
-453 -358 -238 -176 -751 -514 -731 -481 4 7 30 46 57 86 68 102 136 232 173
332 l31 85 77 50 c237 154 517 343 626 422 69 50 127 90 130 90 3 -1 40 -39
83 -83z m-1298 -304 c143 -73 221 -130 217 -160 -7 -67 -178 -366 -275 -484
l-24 -29 5 205 c5 206 -5 338 -33 461 -10 42 -10 57 -2 57 7 0 57 -23 112 -50z
m1515 -394 c23 -178 -4 -543 -42 -581 -7 -7 -30 11 -70 55 -95 103 -91 91 -63
207 26 107 93 316 127 396 26 61 32 51 48 -77z m-4991 59 c768 -298 1992 -648
2941 -841 74 -15 138 -30 142 -33 4 -3 -2 -37 -12 -75 -67 -239 -71 -630 -10
-881 13 -56 12 -64 -7 -59 -10 2 -133 29 -272 60 -883 194 -1776 486 -2611
852 -330 144 -305 125 -339 260 -54 213 -52 504 6 715 9 31 17 57 19 57 1 0
66 -25 143 -55z m4727 -117 c-25 -75 -55 -182 -67 -238 l-24 -102 -124 -90
c-263 -191 -685 -468 -714 -468 -8 0 -20 7 -27 15 -20 24 -187 125 -274 165
l-79 37 164 88 c201 109 453 255 659 383 164 102 485 315 509 338 8 7 16 12
18 10 2 -1 -17 -64 -41 -138z m45 -590 l78 -83 -32 -28 c-127 -112 -407 -331
-612 -479 -175 -125 -592 -398 -609 -398 -3 0 22 40 55 90 76 114 138 232 179
341 l32 86 72 44 c116 71 502 329 631 423 66 47 122 86 124 86 3 0 40 -37 82
-82z m-1307 -299 c109 -55 193 -108 220 -137 16 -18 15 -24 -19 -103 -54 -129
-129 -251 -257 -422 -11 -15 -13 25 -13 245 0 213 -3 280 -18 351 -10 48 -20
94 -23 102 -9 22 -1 20 110 -36z m1525 -384 c23 -163 5 -487 -32 -578 l-12
-29 -77 81 c-72 75 -77 83 -71 113 15 81 75 284 119 402 53 144 55 144 73 11z
m-4914 15 c580 -217 1250 -423 1950 -600 328 -83 777 -187 978 -226 82 -16 88
-19 82 -38 -78 -266 -91 -609 -34 -890 11 -54 18 -101 15 -103 -12 -12 -638
133 -985 228 -629 172 -1513 493 -2061 747 -162 76 -158 72 -190 195 -40 159
-50 364 -25 548 13 104 41 219 52 219 3 0 101 -36 218 -80z m4664 -46 c-17
-49 -48 -156 -69 -238 -21 -81 -40 -149 -42 -151 -87 -70 -601 -419 -764 -519
l-61 -37 -94 63 c-52 35 -138 83 -191 108 -54 25 -97 47 -98 51 0 3 21 15 48
28 139 68 662 369 847 489 121 78 399 264 424 284 13 10 26 17 27 15 2 -2 -10
-44 -27 -93z m35 -635 l79 -80 -38 -32 c-418 -347 -785 -612 -1188 -856 l-38
-23 61 94 c73 112 162 285 187 364 18 57 20 59 113 118 165 105 531 352 630
425 52 38 100 70 105 71 6 0 46 -36 89 -81z m-5155 -166 c7 -21 27 -67 45
-102 30 -60 35 -65 109 -102 351 -177 1107 -474 1687 -664 487 -159 1015 -295
1588 -410 l184 -37 61 26 c34 14 184 71 332 127 149 56 381 144 517 195 136
52 251 94 255 94 4 0 -35 -26 -87 -58 -330 -204 -1057 -652 -1119 -689 -54
-34 -80 -44 -100 -40 -14 3 -570 161 -1236 352 -665 191 -1610 461 -2100 601
-490 140 -897 258 -907 262 -12 5 87 71 365 244 210 130 384 237 387 237 4 1
12 -16 19 -36z m3849 -132 c53 -27 126 -69 162 -94 52 -35 64 -49 62 -67 -7
-64 -128 -288 -230 -426 l-67 -92 0 267 c-1 230 -3 279 -21 364 -12 53 -17 97
-12 97 5 0 52 -22 106 -49z m2408 -950 c101 -29 200 -58 220 -64 l34 -12 -282
-175 c-156 -96 -382 -236 -503 -310 -121 -75 -230 -142 -242 -149 l-23 -12 0
339 0 339 303 187 302 186 3 -138 3 -138 185 -53z m-6418 -189 c100 -29 130
-41 120 -49 -22 -17 -375 -233 -382 -233 -3 0 -6 81 -6 179 l0 179 68 -19 c37
-10 127 -36 200 -57z m4841 -479 c1 -91 6 -140 13 -144 6 -4 103 -33 215 -65
112 -32 200 -61 196 -65 -15 -15 -1225 -759 -1234 -759 -5 0 -8 143 -7 337 l3
336 400 248 c220 136 403 248 407 248 3 1 7 -61 7 -136z m-2859 -88 c104 -30
192 -55 195 -55 19 0 -24 -30 -193 -134 -104 -64 -192 -116 -195 -116 -4 0 -7
81 -7 180 0 99 2 180 5 180 3 0 91 -25 195 -55z"/>
<path d="M4895 9446 c-343 -115 -581 -231 -927 -453 -82 -52 -148 -98 -148
-103 0 -20 876 -297 1360 -430 414 -113 1129 -283 1391 -331 l67 -12 155 81
c184 96 335 181 550 309 255 152 536 332 537 344 0 15 -1010 301 -1377 389
-453 109 -986 206 -1408 255 -30 3 -79 -8 -200 -49z m1770 -541 c72 -20 133
-40 138 -44 14 -14 -539 -321 -579 -321 -41 0 -720 152 -731 164 -2 2 83 49
189 104 106 55 249 131 317 169 l125 70 205 -52 c114 -29 265 -70 336 -90z"/>
<path d="M3902 8278 c-47 -142 -64 -269 -60 -440 2 -81 6 -150 10 -153 13 -13
658 -255 679 -255 2 0 4 87 5 193 0 173 3 202 26 297 15 58 36 126 47 153 l20
47 -36 15 c-19 8 -39 15 -42 15 -4 0 -137 48 -297 106 -159 58 -296 108 -305
111 -13 3 -23 -16 -47 -89z"/>
<path d="M3919 6973 c-51 -119 -79 -282 -79 -464 0 -200 -28 -170 258 -276
136 -51 290 -108 342 -126 l95 -34 -3 148 c-5 204 26 385 92 530 5 12 -44 34
-276 118 -156 56 -311 113 -346 126 l-63 24 -20 -46z"/>
<path d="M3901 5565 c-17 -52 -38 -137 -46 -187 -15 -91 -20 -342 -9 -385 5
-17 34 -32 142 -73 110 -42 541 -200 546 -200 1 0 -1 68 -2 151 -5 202 25 373
92 529 5 12 -16 22 -91 49 -54 18 -207 73 -340 122 -132 49 -246 89 -252 89
-5 0 -24 -43 -40 -95z"/>
</g>
</svg>
