<?xml version="1.0" standalone="no"?>
<!DOCTYPE svg PUBLIC "-//W3C//DTD SVG 20010904//EN"
 "http://www.w3.org/TR/2001/REC-SVG-20010904/DTD/svg10.dtd">
<svg version="1.0" xmlns="http://www.w3.org/2000/svg"
 width="768.000000pt" height="768.000000pt" viewBox="0 0 768.000000 768.000000"
 preserveAspectRatio="xMidYMid meet">
<metadata>
Created by potrace 1.16, written by Peter Selinger 2001-2019
</metadata>
<g transform="translate(0.000000,768.000000) scale(0.100000,-0.100000)"
fill="#000000" stroke="none">
<path d="M4665 6456 c-65 -28 -112 -115 -102 -187 7 -52 52 -137 108 -207 93
-114 137 -189 164 -279 36 -117 176 -393 223 -439 l36 -35 -29 -107 c-44 -169
-54 -230 -54 -337 0 -227 71 -427 182 -512 54 -41 101 -49 146 -26 55 28 70
59 88 171 8 56 18 102 22 101 3 0 22 -32 41 -72 19 -39 58 -101 86 -137 69
-88 330 -320 360 -320 24 0 15 14 -40 66 -101 95 -224 281 -341 514 -35 70
-71 150 -81 179 -9 29 -23 55 -30 58 -19 7 -71 -54 -104 -122 -28 -58 -60
-202 -60 -271 0 -75 -46 -45 -97 63 -50 107 -66 202 -61 352 4 115 8 136 46
248 57 166 56 178 -21 262 -40 44 -140 240 -172 338 -31 97 -119 258 -197 358
-42 55 -84 119 -92 143 -15 42 -15 44 8 67 21 20 28 22 62 15 75 -17 185 -69
272 -129 l87 -60 115 -10 c63 -5 134 -17 157 -25 317 -112 624 -370 827 -696
36 -58 78 -134 92 -170 15 -36 69 -155 120 -265 51 -110 102 -222 114 -250 12
-27 39 -78 61 -112 45 -68 73 -86 199 -123 100 -30 201 -78 280 -134 36 -25
85 -59 110 -75 25 -17 65 -45 90 -63 l45 -33 -115 -6 c-172 -10 -351 -60 -358
-102 -4 -22 30 -94 67 -140 53 -67 165 -147 307 -218 79 -40 181 -101 229
-138 49 -36 94 -70 101 -76 24 -17 27 4 6 47 -40 82 -258 290 -362 343 -45 23
-150 104 -150 115 0 13 102 40 205 56 118 18 216 44 222 60 9 24 -87 133 -189
214 -159 127 -287 207 -420 264 l-123 52 -82 159 c-68 133 -201 427 -242 537
-6 15 -42 74 -80 131 -175 262 -346 429 -623 613 -159 105 -283 150 -450 161
-83 6 -88 8 -145 50 -151 116 -364 180 -458 139z"/>
<path d="M5166 5951 c-3 -5 9 -28 28 -52 18 -24 45 -68 60 -97 14 -28 30 -52
35 -52 4 0 16 9 27 21 14 15 19 36 19 76 0 51 -3 58 -35 84 -27 23 -44 29 -82
29 -26 0 -49 -4 -52 -9z"/>
<path d="M160 4015 c-72 -21 -110 -44 -137 -85 l-23 -33 0 -628 0 -629 155 0
155 0 2 542 3 542 47 -105 c83 -186 164 -371 233 -529 37 -85 88 -199 113
-253 73 -156 127 -192 287 -191 78 0 99 3 146 27 67 32 86 57 145 189 26 57
68 150 94 208 26 58 69 152 95 210 25 58 62 139 81 180 20 41 52 113 72 160
l37 85 3 -532 2 -533 160 0 160 0 0 608 c0 381 -4 621 -10 644 -24 87 -127
133 -295 133 -103 0 -113 -2 -158 -28 -61 -36 -106 -99 -156 -217 -37 -88
-121 -279 -175 -395 -13 -27 -65 -146 -117 -263 -88 -201 -94 -211 -106 -187
-7 13 -68 152 -135 307 -66 156 -143 335 -170 398 -27 63 -64 148 -81 188 -37
87 -84 145 -141 174 -54 29 -205 35 -286 13z"/>
<path d="M3835 4023 c-154 -20 -285 -103 -320 -202 -22 -63 -22 -339 1 -384
38 -76 104 -123 224 -160 55 -17 105 -21 330 -26 193 -4 271 -10 288 -19 39
-22 52 -70 52 -194 0 -125 -12 -165 -63 -202 -27 -20 -42 -21 -438 -24 l-409
-3 0 -85 0 -85 443 3 c383 4 450 7 502 22 93 26 159 60 209 106 71 65 78 95
74 307 -3 204 -4 207 -87 270 -77 59 -114 65 -443 72 l-296 6 -27 25 c-43 39
-55 79 -55 185 0 111 12 147 64 193 l37 32 404 0 405 0 0 85 0 85 -432 -1
c-238 -1 -446 -4 -463 -6z"/>
<path d="M5090 4016 c-94 -26 -159 -77 -197 -154 l-28 -57 0 -465 0 -465 31
-55 c41 -72 96 -113 197 -147 81 -27 84 -27 402 -31 364 -4 320 6 437 -101
l56 -51 176 0 c97 0 176 4 176 9 0 4 -48 53 -108 107 l-107 99 39 30 c22 17
50 50 63 74 l23 44 0 467 c0 327 -3 477 -12 501 -29 86 -109 156 -217 190 -58
18 -94 19 -474 18 -295 -1 -425 -4 -457 -13z m753 -186 c90 -57 87 -38 87
-507 0 -286 -3 -414 -11 -419 -6 -3 -25 8 -43 25 l-32 31 -183 0 c-100 0 -181
-4 -179 -9 2 -4 36 -39 77 -76 l73 -67 -158 4 c-178 4 -199 10 -248 71 l-31
39 -3 391 c-2 216 0 406 3 424 7 40 49 91 90 109 22 10 93 13 271 14 l240 0
47 -30z"/>
<path d="M6390 3477 c0 -466 2 -562 15 -612 29 -108 88 -158 236 -198 81 -21
100 -22 534 -22 l450 0 3 82 3 81 -398 4 c-374 3 -400 4 -438 23 -28 14 -47
33 -62 65 l-23 44 0 543 0 543 -160 0 -160 0 0 -553z"/>
<path d="M2125 3211 l0 -359 30 -43 c61 -86 159 -137 310 -159 39 -5 184 -10
323 -10 l252 0 0 -28 c0 -34 -40 -74 -89 -91 -23 -7 -162 -11 -432 -11 l-399
0 0 -85 0 -85 453 0 c476 0 532 5 630 48 59 26 117 79 138 127 17 37 19 78 19
548 l0 507 -160 0 -160 0 0 -381 0 -381 -252 4 c-216 3 -258 6 -285 21 -18 9
-37 26 -43 36 -6 13 -10 146 -10 360 l0 341 -162 0 -163 0 0 -359z"/>
</g>
</svg>
