<?xml version="1.0" standalone="no"?>
<!DOCTYPE svg PUBLIC "-//W3C//DTD SVG 20010904//EN"
 "http://www.w3.org/TR/2001/REC-SVG-20010904/DTD/svg10.dtd">
<svg version="1.0" xmlns="http://www.w3.org/2000/svg"
 width="980.000000pt" height="860.000000pt" viewBox="0 0 980.000000 860.000000"
 preserveAspectRatio="xMidYMid meet">
<metadata>
Created by potrace 1.16, written by Peter Selinger 2001-2019
</metadata>
<g transform="translate(0.000000,860.000000) scale(0.100000,-0.100000)"
fill="#000000" stroke="none">
<path d="M1042 8579 c-89 -10 -235 -58 -322 -105 -445 -242 -709 -834 -714
-1599 l-1 -211 35 -58 c44 -73 85 -105 158 -123 53 -13 541 -31 904 -32 l117
-1 4 -2822 3 -2823 22 -84 c90 -339 347 -597 683 -682 83 -21 102 -21 1374
-28 710 -3 1868 -3 2575 1 1090 5 1295 8 1350 21 334 77 599 326 696 654 23
80 26 112 34 353 5 146 9 665 9 1155 l1 890 -305 -305 -304 -305 -10 -820 c-6
-538 -13 -832 -20 -856 -16 -53 -67 -119 -105 -134 -92 -39 -180 -40 -2636
-40 -2402 0 -2503 1 -2622 35 -28 8 -47 25 -82 74 l-46 64 -10 2739 c-6 1506
-15 2999 -20 3318 -8 536 -11 586 -30 660 -42 165 -150 329 -257 392 -25 15
-73 34 -107 43 l-60 17 189 6 c105 4 1103 10 2220 13 2004 6 2805 -1 2904 -26
85 -21 201 -72 278 -122 180 -117 338 -335 378 -524 22 -102 34 -515 35 -1194
l0 -595 305 305 305 305 0 235 c-1 404 -18 877 -35 975 -91 513 -477 967 -986
1158 -36 14 -115 39 -176 56 l-109 31 -2774 -1 c-1526 -1 -2808 -5 -2848 -10z"/>
<path d="M8795 6427 c-108 -36 -206 -111 -397 -304 l-128 -128 541 -540 540
-540 157 160 c251 255 287 316 287 485 0 92 -3 112 -26 160 -33 70 -99 149
-274 329 -216 222 -347 337 -414 362 -70 27 -226 35 -286 16z"/>
<path d="M3602 6131 c-57 -15 -131 -74 -338 -271 -109 -104 -203 -190 -207
-190 -5 0 -32 20 -60 45 -77 68 -177 115 -243 115 -163 0 -297 -136 -297 -301
0 -50 6 -78 23 -111 32 -63 113 -159 226 -270 170 -168 255 -221 354 -222 103
-1 164 44 474 345 227 220 369 377 402 445 69 141 2 326 -142 394 -50 23 -143
33 -192 21z"/>
<path d="M4544 5821 c-70 -9 -116 -34 -169 -92 -135 -150 -83 -386 104 -473
45 -21 57 -21 866 -24 934 -3 1159 3 1229 37 122 59 183 213 142 356 -14 46
-29 69 -74 114 -32 32 -74 63 -97 71 -33 11 -203 14 -990 16 -522 1 -978 -1
-1011 -5z"/>
<path d="M7575 5298 c-258 -255 -819 -818 -1248 -1253 l-780 -790 -102 -210
c-110 -224 -351 -752 -468 -1025 -51 -117 -71 -177 -71 -205 1 -80 75 -200
143 -234 79 -40 138 -35 294 23 166 63 697 303 1044 472 l192 94 293 283 c161
155 734 722 1273 1259 l980 977 -535 535 c-294 295 -538 536 -541 536 -3 0
-216 -208 -474 -462z m-1647 -2437 c132 -122 395 -403 385 -412 -4 -4 -140
-68 -302 -143 l-293 -135 -94 94 -94 93 50 106 c27 59 84 184 126 278 85 192
101 221 118 211 6 -4 53 -45 104 -92z"/>
<path d="M3565 4581 c-52 -24 -157 -114 -349 -302 l-156 -151 -62 51 c-34 28
-89 65 -121 82 -116 62 -257 34 -346 -67 -77 -88 -97 -228 -46 -323 56 -103
286 -340 408 -422 66 -44 112 -59 177 -59 60 0 110 25 200 97 106 86 609 598
648 660 95 150 37 349 -123 425 -74 34 -167 38 -230 9z"/>
<path d="M4629 4291 c-149 -7 -171 -15 -248 -92 -138 -139 -95 -380 83 -471
56 -28 213 -37 676 -38 l385 0 305 305 305 305 -685 -2 c-377 -1 -746 -4 -821
-7z"/>
<path d="M3607 3060 c-59 -11 -131 -68 -343 -271 -109 -104 -202 -189 -207
-189 -5 0 -32 20 -60 45 -158 138 -314 150 -440 35 -88 -81 -123 -190 -93
-294 21 -73 95 -164 275 -339 170 -166 198 -182 321 -182 76 0 90 3 137 30
101 58 717 677 749 752 17 40 18 172 2 225 -14 49 -87 132 -137 158 -31 15
-142 43 -160 39 -3 -1 -23 -5 -44 -9z"/>
</g>
</svg>
