<?xml version="1.0" standalone="no"?>
<!DOCTYPE svg PUBLIC "-//W3C//DTD SVG 20010904//EN"
 "http://www.w3.org/TR/2001/REC-SVG-20010904/DTD/svg10.dtd">
<svg version="1.0" xmlns="http://www.w3.org/2000/svg"
 width="1280.000000pt" height="1280.000000pt" viewBox="0 0 1280.000000 1280.000000"
 preserveAspectRatio="xMidYMid meet">
<metadata>
Created by potrace 1.16, written by Peter Selinger 2001-2019
</metadata>
<g transform="translate(0.000000,1280.000000) scale(0.100000,-0.100000)"
fill="#000000" stroke="none">
<path d="M5920 11533 c-110 -11 -286 -35 -290 -39 -2 -3 25 -3 60 -1 36 3 54
3 40 0 -14 -2 -104 -17 -200 -33 -96 -17 -201 -36 -233 -44 -33 -8 -55 -10
-50 -6 4 5 62 20 128 34 66 14 98 23 70 20 -59 -7 -267 -53 -275 -61 -3 -3 11
-3 30 1 29 4 27 3 -10 -9 -97 -31 -289 -82 -285 -75 2 4 43 17 90 30 47 13 83
25 81 27 -3 3 -28 -2 -58 -10 -29 -9 -79 -23 -112 -32 -41 -12 -55 -20 -45
-26 9 -5 10 -9 2 -9 -6 0 -20 -3 -30 -6 -15 -5 -15 -4 -3 5 9 6 10 11 3 11
-15 0 -234 -78 -242 -86 -3 -4 3 -4 14 0 12 4 16 4 10 -2 -14 -13 -166 -72
-160 -63 2 5 32 19 65 31 33 12 59 25 56 27 -13 13 -511 -210 -502 -225 3 -5
-5 -8 -17 -8 -13 1 -21 -4 -19 -12 1 -8 -2 -11 -7 -7 -16 9 -133 -54 -125 -67
4 -7 3 -8 -4 -4 -14 9 -95 -32 -87 -44 3 -5 0 -12 -6 -16 -8 -4 -9 -3 -5 4 11
18 -1 15 -50 -14 -24 -14 -42 -30 -39 -34 3 -5 0 -12 -6 -16 -8 -4 -9 -3 -5 4
9 15 1 15 -25 1 -11 -5 -17 -14 -14 -19 3 -5 0 -12 -6 -16 -8 -5 -9 -3 -4 6 5
8 3 11 -6 8 -8 -3 -14 -10 -14 -15 0 -6 -4 -15 -9 -20 -5 -5 -6 -2 -1 6 5 9 3
12 -6 9 -8 -3 -14 -10 -14 -15 0 -6 -4 -15 -9 -20 -5 -5 -6 -2 -1 6 5 9 3 12
-6 9 -8 -3 -14 -10 -14 -15 0 -6 -4 -15 -9 -20 -5 -5 -6 -3 -2 5 10 17 -5 15
-32 -4 -12 -8 -20 -19 -17 -24 3 -5 0 -12 -6 -16 -8 -5 -9 -3 -4 6 5 8 3 11
-6 8 -8 -3 -14 -10 -14 -15 0 -6 -4 -15 -9 -20 -5 -5 -6 -2 -1 6 5 9 3 12 -6
9 -8 -3 -14 -10 -14 -15 0 -6 -4 -15 -9 -20 -5 -5 -6 -2 -1 6 5 9 3 12 -6 9
-8 -3 -13 -10 -12 -16 1 -5 -5 -16 -15 -24 -15 -12 -16 -11 -3 5 7 9 9 17 3
17 -12 0 -34 -25 -27 -32 3 -3 -3 -11 -12 -19 -16 -13 -17 -12 -4 4 8 10 9 17
3 17 -11 0 -27 -19 -27 -32 0 -3 -4 -10 -9 -15 -5 -5 -6 -3 -2 5 11 18 -9 15
-25 -5 -12 -15 -12 -16 1 -8 9 5 8 0 -4 -13 -21 -25 -36 -31 -16 -7 7 8 8 15
2 15 -12 0 -34 -25 -27 -32 3 -3 -3 -11 -12 -19 -16 -13 -17 -12 -4 4 20 25
-2 21 -25 -5 -12 -13 -13 -18 -4 -13 9 5 8 0 -4 -13 -21 -25 -36 -31 -16 -7
20 24 -5 17 -26 -7 -12 -13 -13 -18 -4 -13 9 5 8 0 -4 -13 -21 -25 -36 -31
-16 -7 22 27 -6 16 -31 -12 -18 -21 -19 -24 -4 -13 15 11 14 8 -4 -13 -25 -28
-43 -38 -21 -12 33 39 -12 6 -118 -89 -125 -111 -346 -334 -452 -454 -140
-159 -366 -457 -442 -582 -37 -61 -4 -19 67 85 84 122 239 327 262 346 9 8
-18 -30 -60 -84 -512 -655 -867 -1449 -1007 -2254 -59 -340 -75 -525 -75 -903
0 -378 16 -563 75 -903 140 -805 495 -1599 1007 -2254 42 -54 69 -92 60 -84
-23 19 -178 224 -262 346 -71 104 -104 146 -67 85 76 -125 302 -423 442 -582
106 -120 327 -343 452 -454 110 -99 147 -126 117 -86 -7 9 -1 6 14 -7 30 -27
37 -41 9 -20 -9 7 -6 1 7 -14 27 -30 52 -38 30 -9 -11 14 -10 13 9 -2 24 -21
29 -31 10 -20 -7 4 -4 -2 6 -14 23 -26 44 -30 25 -4 -11 14 -10 13 9 -2 24
-21 29 -31 10 -20 -7 4 -4 -2 6 -14 23 -26 45 -30 25 -4 -13 15 -12 16 4 3 9
-8 15 -16 12 -19 -7 -7 15 -32 27 -32 6 0 4 8 -3 17 -11 15 -10 14 9 -1 24
-21 29 -32 10 -20 -9 5 -9 2 1 -9 16 -20 36 -23 25 -4 -4 7 -3 9 2 4 5 -5 9
-12 9 -15 0 -13 16 -32 27 -32 6 0 5 7 -3 18 -13 15 -12 16 3 4 10 -8 16 -19
15 -24 -1 -6 4 -13 12 -16 10 -3 11 0 5 9 -7 12 -5 12 9 0 20 -16 23 -26 5
-15 -9 5 -9 2 1 -9 16 -20 36 -23 25 -4 -4 7 -3 9 2 4 5 -5 9 -14 9 -19 0 -6
6 -13 14 -16 9 -3 11 0 6 9 -5 8 -4 11 1 6 5 -5 9 -14 9 -19 0 -6 6 -13 14
-16 9 -3 11 0 6 8 -5 9 -4 11 4 6 6 -4 9 -11 6 -16 -3 -5 5 -16 17 -24 27 -19
42 -21 32 -3 -4 7 -3 9 2 4 5 -5 9 -14 9 -19 0 -6 6 -13 14 -16 9 -3 11 0 6 9
-5 8 -4 11 1 6 5 -5 9 -14 9 -19 0 -6 6 -13 14 -16 9 -3 11 0 6 9 -5 8 -4 11
1 6 5 -5 9 -14 9 -19 0 -6 6 -13 14 -16 9 -3 11 0 6 8 -5 9 -4 11 4 6 6 -4 9
-11 6 -16 -3 -5 3 -14 14 -19 26 -14 34 -14 25 1 -4 7 -3 8 5 4 6 -4 9 -11 6
-16 -3 -4 15 -20 39 -34 49 -29 61 -32 50 -14 -4 7 -3 8 5 4 6 -4 9 -11 6 -16
-8 -12 73 -53 87 -44 7 4 8 3 4 -4 -8 -13 109 -76 125 -67 5 4 8 1 7 -7 -2 -8
6 -13 19 -12 12 0 20 -3 17 -8 -9 -15 489 -238 502 -225 3 2 -23 15 -56 27
-33 12 -63 26 -65 31 -9 14 119 -42 131 -57 7 -8 62 -33 124 -54 113 -41 147
-49 120 -29 -12 9 -12 10 3 5 10 -3 24 -6 30 -6 8 0 7 -4 -2 -9 -10 -6 3 -14
43 -25 31 -9 81 -23 112 -32 30 -9 57 -14 60 -11 2 2 -34 14 -81 27 -47 13
-88 26 -90 30 -4 7 188 -44 285 -75 37 -12 39 -13 10 -9 -19 4 -33 4 -30 1 8
-9 191 -48 204 -44 6 2 -19 9 -57 17 -37 7 -69 16 -72 20 -2 4 21 1 53 -6 162
-39 480 -85 715 -104 165 -13 599 -13 764 0 153 13 348 36 458 56 87 15 125
17 85 4 -47 -15 7 -10 102 9 187 39 282 64 264 71 -13 4 6 13 57 26 42 11 74
17 72 13 -3 -4 -28 -12 -56 -19 -27 -7 -48 -14 -45 -17 5 -6 146 33 155 43 3
3 -4 3 -16 0 -34 -11 -28 0 7 13 18 6 28 6 25 1 -8 -12 13 -12 40 1 19 9 18 9
-2 5 -13 -2 -23 -2 -23 0 0 11 45 21 51 12 4 -7 29 -3 65 10 258 90 477 180
468 193 -3 5 1 6 9 3 17 -6 182 73 182 88 0 6 7 13 15 15 13 4 13 3 0 -6 -34
-24 10 -8 83 30 42 22 75 45 72 50 -3 5 0 6 8 4 16 -7 109 44 102 55 -3 5 0
12 6 16 8 4 9 3 5 -4 -9 -15 -1 -15 25 -1 11 5 17 14 14 19 -3 5 0 12 6 16 8
4 9 3 5 -4 -11 -18 1 -15 50 14 24 14 42 30 39 34 -3 5 0 12 6 16 8 4 9 3 5
-4 -11 -18 3 -15 40 9 19 11 32 25 29 29 -3 5 0 12 6 16 8 5 9 3 4 -6 -5 -8
-3 -11 6 -8 8 3 14 10 14 16 0 5 4 14 9 19 5 5 6 2 1 -6 -5 -9 -3 -12 6 -9 8
3 14 10 14 16 0 5 4 14 9 19 5 5 6 3 2 -4 -11 -19 9 -16 25 4 10 11 10 14 1 9
-18 -11 -15 -1 5 15 11 10 14 10 9 2 -10 -18 5 -16 32 3 12 8 20 19 17 24 -3
5 0 12 6 16 8 4 9 3 5 -4 -11 -18 10 -14 25 5 10 11 10 14 2 9 -19 -11 -16 -1
4 15 14 12 16 12 9 0 -6 -9 -4 -12 5 -9 8 3 14 10 14 16 0 5 4 14 9 19 5 5 6
3 2 -5 -11 -18 9 -15 25 5 10 11 10 14 2 9 -19 -11 -16 -1 4 15 11 10 14 10 9
2 -11 -19 9 -16 25 4 10 11 10 14 2 9 -19 -11 -16 -1 4 15 11 10 14 10 9 2
-12 -22 10 -14 30 9 19 22 19 23 -1 8 -20 -15 -20 -14 -1 8 20 23 32 30 21 12
-10 -17 12 -11 26 7 12 15 12 16 -1 8 -9 -5 -8 0 4 13 21 25 36 31 16 7 -22
-27 6 -16 31 12 18 20 19 24 4 13 -20 -15 -20 -14 -1 8 20 23 32 30 21 12 -13
-21 13 -9 36 17 l24 28 -25 -20 -25 -20 24 28 c24 27 38 36 26 17 -3 -5 -3
-10 2 -10 10 1 73 58 73 67 0 3 -11 -4 -25 -17 -14 -13 -25 -21 -25 -19 0 3
14 18 32 35 17 16 28 23 24 16 -4 -6 -3 -12 3 -12 19 0 404 391 514 522 103
121 122 148 95 132 -7 -4 -4 2 6 14 21 25 36 31 16 7 -7 -8 -10 -15 -7 -15 13
0 277 366 312 430 19 35 -16 -11 -85 -113 -41 -60 -77 -110 -81 -113 -5 -2 39
66 97 153 354 530 599 1105 738 1728 208 934 152 1894 -165 2810 -136 394
-332 788 -573 1148 -58 87 -102 155 -97 153 4 -3 40 -53 81 -113 69 -102 104
-148 85 -113 -35 64 -299 430 -312 430 -3 0 1 -8 8 -17 11 -15 10 -14 -9 1
-23 20 -30 32 -12 21 25 -16 2 16 -97 133 -110 131 -495 522 -514 522 -6 0 -7
-4 -4 -10 12 -20 -2 -9 -31 22 -28 32 -28 32 -1 9 15 -14 27 -21 27 -18 0 9
-63 66 -73 67 -5 0 -5 -6 -1 -12 4 -7 -5 -2 -19 11 -33 30 -36 42 -4 15 20
-17 20 -16 -2 9 -25 27 -48 37 -35 15 4 -7 -2 -4 -14 6 -26 23 -29 34 -4 15 9
-7 6 -1 -7 14 -27 30 -52 38 -30 10 11 -15 10 -14 -9 1 -24 21 -29 32 -9 20 8
-5 8 -2 -2 9 -16 20 -36 23 -25 5 4 -7 -2 -4 -14 6 -26 23 -29 34 -4 15 14
-11 13 -10 -2 9 -20 23 -42 31 -30 10 5 -9 2 -9 -9 1 -20 16 -23 26 -4 15 8
-5 8 -2 -2 9 -16 20 -36 23 -25 5 5 -9 2 -9 -9 1 -20 16 -23 26 -4 15 8 -5 8
-2 -2 9 -16 20 -36 23 -25 5 4 -8 3 -10 -2 -5 -5 5 -9 14 -9 19 0 6 -6 13 -14
16 -9 3 -11 0 -5 -9 7 -12 5 -12 -9 0 -20 16 -23 26 -4 15 8 -5 8 -2 -2 9 -15
19 -36 23 -25 5 4 -7 3 -8 -5 -4 -6 4 -9 11 -6 16 3 5 -15 22 -40 39 -50 34
-60 38 -49 19 4 -8 3 -10 -2 -5 -5 5 -9 14 -9 19 0 6 -6 13 -14 16 -9 3 -11 0
-6 -9 5 -8 4 -11 -1 -6 -5 5 -9 14 -9 19 0 6 -6 13 -14 16 -9 3 -11 0 -6 -8 5
-9 4 -11 -4 -6 -6 4 -9 11 -6 16 3 4 -10 18 -29 29 -37 24 -51 27 -40 9 4 -7
3 -8 -5 -4 -6 4 -9 11 -6 16 8 12 -33 33 -47 24 -7 -4 -8 -3 -4 4 3 6 -2 16
-13 21 -26 14 -34 14 -25 -1 4 -7 3 -8 -5 -4 -6 4 -9 11 -6 16 3 5 -3 14 -14
19 -26 14 -34 14 -25 -1 4 -7 3 -8 -5 -4 -6 4 -9 11 -6 16 7 11 -86 62 -102
55 -8 -2 -11 -1 -8 4 3 5 -30 28 -72 50 -73 38 -117 54 -83 30 13 -9 13 -10 0
-6 -8 2 -15 9 -15 15 0 15 -165 94 -182 88 -8 -3 -12 -2 -9 3 7 11 -173 88
-377 161 -96 35 -151 50 -155 43 -6 -10 -52 0 -52 11 0 2 10 2 23 -1 12 -3 19
-3 16 1 -9 10 -212 67 -224 63 -5 -2 14 -9 43 -16 28 -7 54 -16 57 -20 2 -4
-30 2 -72 13 -51 13 -70 22 -57 26 11 4 -25 17 -96 33 -178 42 -269 59 -283
54 -6 -3 -1 -6 13 -7 14 -1 48 -8 75 -16 58 -16 31 -12 -130 15 -140 25 -325
48 -488 61 -189 15 -609 12 -818 -5 -100 -9 -184 -14 -186 -11 -3 2 28 7 69
11 40 3 109 10 153 14 75 8 76 8 20 8 -33 0 -76 -2 -95 -4z m1118 -3105 l2
-2108 -600 0 -600 0 0 2103 c0 1157 3 2107 7 2110 3 4 272 6 597 5 l591 -3 3
-2107z m-1688 895 c0 -236 3 -519 7 -630 l6 -201 -49 -25 c-71 -36 -247 -154
-339 -227 -556 -443 -885 -1127 -885 -1840 0 -1321 1102 -2392 2415 -2347 94
4 217 13 275 22 958 143 1730 854 1949 1795 42 182 55 307 55 530 0 274 -26
453 -100 699 -164 537 -563 1042 -1042 1318 -46 26 -91 53 -100 60 -16 10 -17
61 -20 642 -2 393 1 631 7 631 16 0 182 -60 281 -102 307 -130 605 -310 869
-525 139 -113 394 -370 504 -508 842 -1052 1019 -2467 461 -3687 -176 -384
-403 -708 -714 -1018 -182 -183 -318 -296 -516 -430 -1064 -721 -2435 -805
-3579 -220 -1054 539 -1761 1563 -1901 2750 -23 197 -23 583 0 780 139 1184
833 2192 1890 2745 163 85 468 213 514 215 9 0 12 -92 12 -427z"/>
</g>
</svg>
