<?xml version="1.0" standalone="no"?>
<!DOCTYPE svg PUBLIC "-//W3C//DTD SVG 20010904//EN"
 "http://www.w3.org/TR/2001/REC-SVG-20010904/DTD/svg10.dtd">
<svg version="1.0" xmlns="http://www.w3.org/2000/svg"
 width="512.000000pt" height="512.000000pt" viewBox="0 0 512.000000 512.000000"
 preserveAspectRatio="xMidYMid meet">
<metadata>
Created by potrace 1.16, written by Peter Selinger 2001-2019
</metadata>
<g transform="translate(0.000000,512.000000) scale(0.100000,-0.100000)"
fill="#000000" stroke="none">
<path d="M2445 4147 c-22 -8 -56 -22 -75 -31 -19 -10 -328 -311 -687 -669
-702 -701 -700 -698 -723 -824 -14 -80 0 -167 41 -244 23 -43 168 -193 682
-707 750 -749 698 -707 872 -707 175 0 128 -39 886 722 501 502 661 669 678
705 65 138 46 295 -50 411 l-32 39 -671 -670 c-635 -634 -674 -671 -725 -687
-65 -21 -169 -17 -221 10 -19 9 -243 225 -497 478 -516 514 -508 504 -507 632
1 105 24 142 211 327 181 180 216 202 323 202 112 0 138 -18 380 -259 l215
-215 418 418 417 417 -297 298 c-348 348 -363 359 -512 364 -52 2 -102 -2
-126 -10z"/>
<path d="M3745 3611 c-16 -10 -295 -285 -620 -610 l-590 -591 -275 275 -276
275 -44 0 c-43 0 -46 -2 -197 -152 -158 -157 -175 -183 -158 -240 8 -28 868
-893 909 -915 70 -37 35 -67 879 775 548 548 780 786 788 809 19 58 -1 88
-159 246 -141 139 -151 147 -188 147 -21 0 -52 -9 -69 -19z"/>
</g>
</svg>
