<?xml version="1.0" standalone="no"?>
<!DOCTYPE svg PUBLIC "-//W3C//DTD SVG 20010904//EN"
 "http://www.w3.org/TR/2001/REC-SVG-20010904/DTD/svg10.dtd">
<svg version="1.0" xmlns="http://www.w3.org/2000/svg"
 width="1496.000000pt" height="557.000000pt" viewBox="0 0 1496.000000 557.000000"
 preserveAspectRatio="xMidYMid meet">
<metadata>
Created by potrace 1.16, written by Peter Selinger 2001-2019
</metadata>
<g transform="translate(0.000000,557.000000) scale(0.100000,-0.100000)"
fill="#000000" stroke="none">
<path d="M2998 5560 c-786 -40 -1410 -202 -1859 -480 -260 -161 -478 -395
-588 -631 -116 -248 -233 -685 -257 -956 l-7 -83 -59 0 c-104 0 -183 -61 -214
-166 -14 -50 -14 -57 0 -79 19 -29 75 -59 138 -75 l45 -12 7 -121 c27 -462
135 -955 295 -1345 267 -648 666 -1099 1205 -1363 391 -190 879 -280 1276
-235 734 84 1448 394 2088 904 185 148 549 506 700 689 326 395 629 863 740
1143 140 353 258 890 269 1220 l5 155 97 95 c111 111 222 187 336 232 70 27
95 32 201 36 198 7 354 -36 509 -140 156 -103 247 -242 259 -393 25 -302 118
-749 215 -1035 80 -238 125 -334 252 -540 356 -582 720 -1016 1169 -1396 643
-545 1440 -897 2199 -974 204 -20 414 -6 667 45 792 160 1392 666 1744 1468
142 325 246 704 299 1092 17 124 41 383 41 446 0 11 18 21 58 32 117 32 147
72 122 163 -26 94 -109 153 -212 154 -32 0 -58 2 -58 4 0 42 -27 242 -46 341
-51 258 -172 625 -255 769 -163 283 -406 497 -764 671 -443 216 -972 331
-1680 366 -511 24 -1197 -31 -1741 -141 l-140 -29 -91 34 c-98 37 -277 76
-443 97 -83 10 -512 13 -2065 13 -1813 0 -1969 -1 -2080 -17 -160 -24 -313
-59 -404 -94 l-74 -29 -158 32 c-515 103 -1243 159 -1741 133z m6525 -295 c26
-10 22 -12 -70 -44 -436 -152 -788 -358 -1002 -587 -61 -66 -163 -204 -174
-238 -2 -5 -20 9 -41 31 -119 132 -330 248 -536 294 -349 78 -658 -6 -945
-256 l-70 -62 -33 57 c-73 125 -229 281 -402 402 -188 132 -510 286 -767 369
-40 12 -70 25 -67 28 3 3 33 9 67 12 108 11 4009 4 4040 -6z"/>
</g>
</svg>
