<?xml version="1.0" standalone="no"?>
<!DOCTYPE svg PUBLIC "-//W3C//DTD SVG 20010904//EN"
 "http://www.w3.org/TR/2001/REC-SVG-20010904/DTD/svg10.dtd">
<svg version="1.0" xmlns="http://www.w3.org/2000/svg"
 width="1200.000000pt" height="630.000000pt" viewBox="0 0 1200.000000 630.000000"
 preserveAspectRatio="xMidYMid meet">
<metadata>
Created by potrace 1.16, written by Peter Selinger 2001-2019
</metadata>
<g transform="translate(0.000000,630.000000) scale(0.100000,-0.100000)"
fill="#000000" stroke="none">
<path d="M3169 5981 l-319 -319 0 -132 0 -133 30 29 c17 16 56 55 87 87 31 31
62 57 70 57 7 0 13 5 13 12 0 12 138 148 152 148 4 0 8 6 8 13 0 18 34 49 43
40 4 -3 7 -1 7 5 0 13 150 169 150 156 1 -5 7 3 15 18 8 15 24 29 35 33 11 3
20 10 20 15 0 15 143 160 152 154 4 -3 8 1 8 8 0 7 25 39 57 71 l56 57 -132 0
-133 0 -319 -319z"/>
<path d="M4541 6243 c-34 -32 -67 -63 -74 -69 -7 -6 -22 -22 -33 -35 -12 -13
-84 -86 -160 -161 -77 -76 -144 -143 -150 -150 -6 -7 -42 -43 -80 -79 l-69
-67 -55 10 c-59 9 -178 3 -214 -13 -18 -8 -16 -8 9 -4 127 19 244 12 253 -15
5 -13 3 -13 -12 -1 -22 18 -208 20 -230 2 -8 -6 -25 -9 -38 -6 -27 7 -92 -18
-126 -49 -66 -59 -112 -108 -114 -119 0 -6 -2 -18 -2 -26 -1 -8 -7 -16 -15
-19 -8 -3 -11 0 -7 7 4 6 5 11 2 11 -14 0 -29 -51 -32 -108 -2 -35 -8 -79 -14
-98 -6 -19 -9 -47 -5 -64 4 -16 6 -32 6 -35 0 -2 4 -18 9 -35 5 -16 5 -30 1
-30 -4 0 -55 -48 -112 -106 -57 -58 -135 -136 -173 -172 -38 -37 -87 -87 -110
-111 -22 -24 -47 -49 -54 -55 -15 -13 -37 -36 -69 -74 -21 -25 -23 -37 -23
-149 0 -68 2 -123 5 -123 8 0 166 153 395 382 l217 218 26 -20 c14 -11 29 -20
33 -20 4 0 -1 7 -12 15 -10 8 -16 15 -12 15 3 0 25 -16 48 -35 23 -19 46 -35
52 -35 6 0 7 -7 4 -16 -5 -13 -4 -14 7 -6 9 8 17 8 24 1 50 -50 356 -50 406 0
7 7 15 7 24 -1 10 -8 12 -7 7 5 -4 12 -1 14 13 11 11 -3 26 2 34 12 13 16 12
16 -11 4 -14 -7 -3 7 25 31 27 24 55 43 63 42 8 0 11 5 8 13 -3 8 0 13 7 11 7
-1 11 6 11 15 -1 10 3 15 8 12 5 -3 8 0 7 7 -2 8 5 28 15 44 9 17 15 22 12 13
-3 -10 -9 -26 -12 -35 -3 -10 3 -4 13 12 19 32 22 55 30 208 2 55 0 104 -5
110 -5 7 -8 23 -5 37 4 27 -28 123 -35 102 -2 -6 -8 -12 -14 -12 -5 0 -7 8 -4
18 6 19 -28 82 -44 82 -6 0 1 -17 16 -37 l26 -38 -30 35 c-17 19 -45 48 -64
64 -26 22 -28 25 -8 15 14 -7 31 -19 39 -28 9 -11 9 -8 -2 9 -14 25 -12 27
247 286 285 286 436 441 436 449 0 3 -56 5 -124 5 l-124 0 -61 -57z"/>
<path d="M5686 6275 c-10 -14 -22 -25 -26 -25 -4 0 -349 -342 -767 -760 -702
-702 -762 -760 -784 -751 -17 6 -40 3 -79 -10 -30 -10 -44 -16 -30 -13 54 12
118 16 123 7 3 -4 -12 -7 -33 -5 -22 2 -52 -2 -68 -10 -21 -11 -35 -12 -53 -5
-13 6 -28 11 -34 11 -5 1 -29 8 -52 15 -38 13 -47 12 -90 -5 -26 -10 -53 -17
-60 -16 -6 1 -14 -2 -18 -8 -3 -5 2 -10 12 -11 11 0 13 -3 5 -6 -7 -3 -23 2
-35 9 -41 27 -86 38 -112 28 -14 -5 -25 -7 -25 -5 0 3 11 10 25 15 17 6 37 5
66 -5 52 -19 75 -19 33 -1 -69 31 -89 30 -128 -6 -36 -33 -36 -33 -36 -116 0
-81 -1 -82 -21 -72 -16 9 -26 8 -47 -6 -37 -24 -122 -106 -122 -117 0 -5 22
13 49 41 26 27 61 57 77 67 24 14 25 14 9 1 -11 -9 -49 -45 -84 -79 -35 -34
-61 -56 -57 -49 14 23 -12 12 -28 -13 -18 -28 -21 -39 -6 -30 6 3 7 -1 4 -10
-4 -9 -13 -14 -20 -11 -17 6 -48 -38 -41 -57 3 -7 -4 -24 -14 -38 -10 -13 -19
-20 -19 -15 0 5 8 18 17 28 15 17 15 18 0 13 -19 -8 -52 -89 -42 -104 3 -6 2
-11 -4 -11 -5 0 -11 6 -14 13 -5 15 -37 -81 -35 -108 0 -11 -7 -36 -16 -55
-17 -35 -17 -33 -1 40 4 18 1 15 -11 -10 -9 -19 -18 -60 -19 -90 -2 -30 -4
-57 -5 -60 -1 -3 -3 -9 -4 -15 -1 -5 -5 -17 -8 -25 -4 -8 -9 -24 -12 -35 -3
-11 -4 5 -1 35 l3 55 -13 -55 c-17 -66 -29 -183 -15 -135 8 26 9 25 5 -12 -4
-29 -1 -43 7 -43 6 0 -23 -35 -65 -77 -43 -43 -86 -87 -97 -98 -18 -19 -19
-37 -20 -312 l0 -293 92 -2 93 -2 -95 -6 -95 -6 83 -2 82 -2 0 -169 0 -169
-80 -83 -80 -82 0 -130 0 -130 31 29 c16 16 49 48 71 72 23 23 45 42 50 42 4
0 8 -186 8 -412 l0 -413 -80 -84 -80 -85 0 -129 0 -130 78 76 77 77 8 -90 c5
-50 15 -108 23 -128 12 -32 13 -33 8 -7 -5 28 -5 29 9 10 9 -11 13 -23 10 -28
-18 -30 99 -186 132 -173 7 2 19 -1 25 -9 6 -8 27 -19 46 -25 20 -7 33 -14 31
-17 -7 -6 -80 26 -89 40 -6 9 -8 9 -8 0 0 -21 78 -55 110 -48 16 3 31 2 35 -4
3 -6 18 -12 33 -12 25 -2 25 -2 -5 -8 -24 -5 -78 -51 -222 -195 -105 -103
-191 -191 -191 -195 0 -4 -9 -14 -20 -24 -11 -9 -20 -13 -20 -9 0 4 -8 -6 -18
-23 -11 -16 -26 -36 -35 -44 -12 -10 -17 -30 -17 -72 l0 -59 70 0 70 0 127
123 c69 67 200 196 289 286 90 90 164 160 165 155 0 -5 4 1 9 14 l9 22 422 0
423 0 -262 -261 c-144 -143 -262 -265 -262 -269 0 -5 -9 -11 -19 -15 -11 -3
-26 -17 -35 -30 l-16 -25 128 0 129 0 121 117 c67 65 137 133 157 151 19 19
35 38 35 43 0 5 7 9 15 9 8 0 20 10 26 22 13 23 34 48 42 48 2 0 52 47 109
105 l105 105 417 0 417 0 -296 -295 c-162 -162 -295 -297 -295 -300 0 -3 58
-5 128 -5 l128 0 161 159 c89 88 171 165 182 171 12 6 21 17 21 26 0 8 11 20
25 26 14 6 25 14 25 18 0 10 90 103 90 94 1 -5 8 3 16 19 8 15 21 27 29 27 8
0 20 10 26 23 7 12 17 25 23 29 10 7 836 12 836 5 0 -6 -560 -565 -560 -558 0
8 -20 -22 -20 -31 0 -5 56 -8 125 -8 l125 0 93 90 c50 49 98 90 105 90 6 0 12
5 12 11 0 13 137 149 150 149 6 0 10 6 10 13 0 18 34 49 43 40 4 -3 7 -1 7 5
0 13 150 169 150 156 1 -5 8 3 16 19 l15 27 422 0 422 0 -258 -257 c-142 -142
-263 -266 -268 -275 -6 -10 -16 -18 -24 -18 -13 0 -35 -29 -35 -44 0 -3 56 -6
124 -6 l125 0 101 98 c56 53 192 188 304 299 l201 201 305 5 c198 2 316 8 335
15 l30 12 -30 -6 c-16 -4 -172 -7 -345 -9 l-315 -2 310 7 c259 5 316 9 347 23
41 19 62 22 38 7 -31 -20 14 -10 50 11 32 19 29 19 -17 3 -10 -3 -2 4 17 17
19 13 39 22 43 21 12 -3 50 19 43 25 -3 3 -14 0 -23 -8 -10 -7 5 11 32 41 28
30 52 57 54 60 2 3 1 -3 -2 -13 -10 -28 1 -20 18 14 9 17 14 37 11 44 -3 9 0
12 8 9 32 -12 40 54 44 371 l3 310 34 35 c19 19 57 59 85 89 l50 53 0 124 c0
128 -5 141 -37 104 -38 -42 -62 -66 -97 -98 l-36 -34 0 420 c0 393 1 420 18
435 10 10 22 14 25 10 4 -3 7 0 7 8 0 8 27 42 60 76 33 34 60 64 60 67 0 3
-39 7 -87 9 l-88 3 88 2 88 2 -2 247 c0 136 -5 256 -10 265 -5 9 -16 15 -23
12 -8 -3 -17 -1 -21 5 -3 7 0 8 9 5 9 -3 16 -1 16 5 0 6 -7 11 -15 11 -8 0
-15 6 -15 13 0 12 -49 47 -67 47 -4 0 7 -9 25 -20 17 -11 32 -22 32 -25 0 -7
-6 -3 -65 34 l-40 26 -2940 5 -2940 5 2945 0 c1620 0 2954 -3 2965 -8 11 -4 7
-1 -10 7 -21 11 -65 15 -148 16 l-118 0 22 29 c11 16 32 34 45 41 13 7 26 21
30 32 4 14 16 18 59 18 35 0 59 5 69 16 11 10 16 11 16 3 0 -7 3 -10 6 -6 3 3
1 28 -5 56 -10 47 -9 52 13 76 13 14 28 25 35 25 6 0 11 6 11 13 0 6 27 40 60
74 l61 61 -3 129 -3 128 -122 -122 c-94 -94 -123 -119 -127 -105 -3 9 -3 -1
-1 -23 4 -36 4 -38 -7 -15 -6 14 -10 34 -9 45 1 11 -7 45 -19 75 -16 44 -19
48 -15 20 5 -33 4 -33 -6 -10 -7 14 -11 32 -10 41 3 28 -40 111 -54 105 -9 -3
-12 0 -9 9 7 16 -23 75 -37 75 -7 0 -7 -6 2 -17 11 -15 10 -14 -9 1 -23 20
-30 32 -12 21 14 -9 12 1 -5 35 -9 17 -21 30 -27 30 -6 0 -4 -8 5 -18 10 -10
17 -22 17 -27 0 -11 -44 47 -45 60 -2 23 -18 45 -34 45 -9 1 -29 12 -46 26
-22 19 -24 23 -7 15 16 -9 22 -9 22 0 0 6 52 63 116 127 64 64 120 125 125
134 5 10 16 18 25 18 8 0 19 11 25 24 6 13 21 29 33 36 11 6 37 31 56 56 19
24 41 44 47 44 7 0 13 4 13 9 0 6 27 38 60 73 l60 62 0 123 c0 68 -4 123 -9
123 -5 0 -162 -154 -350 -342 -307 -308 -341 -339 -341 -312 -1 16 -7 40 -16
54 l-15 25 6 -25 c6 -23 5 -24 -7 -5 -7 11 -13 24 -13 29 0 20 -43 23 -95 5
-30 -10 -44 -16 -30 -13 14 3 48 7 75 9 l50 4 -53 -8 c-29 -5 -58 -13 -65 -19
-8 -6 -20 -6 -37 1 -14 5 -29 11 -35 11 -5 1 -29 8 -52 15 -38 13 -47 12 -90
-5 -26 -10 -53 -17 -60 -16 -6 1 -14 -2 -18 -8 -3 -5 2 -10 12 -11 11 0 13 -3
5 -6 -7 -3 -23 2 -35 9 -41 27 -86 38 -112 28 -14 -5 -25 -7 -25 -5 0 3 11 10
25 15 17 6 38 4 70 -7 25 -8 48 -13 51 -11 2 3 -21 13 -52 23 -55 17 -57 17
-82 -2 -26 -20 -27 -22 -24 -115 3 -64 0 -98 -8 -103 -8 -5 -8 -11 2 -23 10
-14 10 -15 -1 -5 -10 8 -14 39 -14 100 l-1 88 -3 -78 c-4 -74 -5 -77 -24 -66
-16 8 -27 6 -52 -10 -18 -11 -28 -21 -24 -21 4 0 20 8 35 17 15 9 5 -3 -23
-28 -47 -42 -78 -74 -111 -115 -9 -10 -13 -13 -9 -6 10 19 -10 14 -30 -8 -9
-10 -15 -26 -12 -33 3 -9 -1 -14 -10 -13 -9 0 -18 -5 -21 -13 -3 -9 0 -11 8
-6 9 5 11 4 6 -4 -4 -6 -11 -9 -16 -6 -4 3 -11 -2 -14 -11 -9 -22 -8 -26 6
-18 7 5 8 3 4 -5 -5 -7 -14 -10 -21 -7 -8 3 -21 -13 -34 -44 -24 -55 -25 -64
-10 -54 12 7 1 -16 -21 -46 -9 -12 -10 -9 -6 15 5 29 5 29 -11 -5 -9 -19 -17
-52 -17 -72 -1 -37 -10 -50 -19 -25 -7 20 -28 -64 -33 -133 -2 -36 -7 -72 -11
-80 -4 -8 -13 -40 -19 -70 -14 -58 -14 -55 1 73 3 30 1 26 -9 -18 -22 -99 -28
-142 -17 -125 9 13 11 13 11 -1 0 -23 21 -29 98 -29 l67 0 -62 -60 -62 -60
-411 0 c-403 0 -411 0 -400 19 5 11 23 29 39 41 17 11 33 29 36 40 6 18 16 20
95 20 116 0 122 3 114 49 -4 20 -10 41 -14 46 -7 9 -7 30 -1 69 0 4 234 241
518 525 285 284 516 520 515 525 -2 5 5 3 15 -4 28 -22 29 -24 10 -17 -12 4
-16 3 -11 -4 3 -6 15 -8 26 -6 15 4 18 2 14 -10 -5 -12 -3 -13 7 -5 9 8 17 8
24 1 19 -19 118 -39 199 -40 86 -1 195 23 215 47 7 8 21 11 34 8 18 -4 35 7
84 55 55 54 81 94 49 75 -9 -5 -8 -2 1 10 9 11 17 13 21 6 10 -16 44 66 36 86
-3 9 -1 23 6 31 18 22 23 201 8 249 -7 21 -14 52 -15 69 -1 16 -9 44 -19 60
-15 26 -16 27 -10 5 6 -22 5 -23 -9 -12 -9 8 -13 21 -10 29 4 10 2 14 -5 9 -6
-3 -14 -2 -17 4 -4 6 -3 9 2 8 7 -2 307 295 561 556 l102 105 0 71 0 70 -58 0
c-47 0 -63 -4 -78 -21 -10 -12 -31 -27 -46 -35 -16 -8 -28 -21 -28 -29 0 -8
-7 -18 -16 -23 -13 -7 -321 -310 -370 -365 -7 -6 -53 -52 -103 -101 l-91 -90
-35 13 c-19 7 -44 9 -56 6 -11 -4 -27 -1 -35 6 -20 16 -208 17 -228 0 -8 -6
-25 -9 -38 -6 -14 4 -42 -2 -68 -14 -25 -11 -38 -21 -30 -20 8 0 26 6 40 14
14 8 32 14 39 15 8 0 -9 -12 -37 -26 -29 -14 -77 -49 -107 -76 -30 -28 -55
-44 -55 -37 0 8 -9 1 -20 -16 -23 -35 -27 -58 -5 -29 14 18 14 17 4 -8 -13
-29 -28 -37 -30 -15 0 6 -9 -6 -19 -27 -16 -35 -18 -63 -16 -210 2 -165 14
-234 38 -220 4 3 1 12 -7 20 -8 9 -15 23 -15 32 0 11 7 7 19 -13 l19 -30 -56
-58 c-32 -31 -83 -83 -116 -115 -32 -31 -115 -115 -185 -186 -69 -71 -146
-147 -170 -170 -24 -22 -73 -72 -110 -110 -36 -38 -72 -74 -78 -80 -7 -6 -66
-64 -130 -128 -65 -65 -123 -118 -129 -118 -7 0 -15 12 -19 28 -7 25 -8 25
-15 7 -7 -19 -8 -19 -15 5 -5 14 -8 32 -7 41 2 8 -6 35 -17 60 -12 24 -21 38
-21 32 0 -7 -5 -13 -11 -13 -5 0 -7 5 -3 11 3 6 -2 29 -12 50 -10 22 -20 35
-24 29 -4 -7 -12 -5 -21 6 -9 12 -10 15 -1 10 17 -10 15 -3 -9 38 -12 20 -26
36 -32 36 -5 0 -2 -9 8 -20 10 -11 16 -22 14 -24 -2 -2 -15 10 -29 27 -14 17
-19 27 -11 23 9 -6 12 -5 9 4 -2 7 -12 14 -22 16 -10 1 -21 6 -24 10 -4 4 1 4
11 1 32 -12 20 2 -75 90 -35 32 -17 1 20 -34 20 -20 26 -28 12 -18 -39 30 -72
65 -61 65 6 0 35 25 64 55 30 30 57 52 61 48 3 -3 6 -1 6 6 0 14 136 151 150
151 6 0 10 6 10 13 0 18 34 49 43 40 4 -3 7 -1 7 5 0 16 146 163 154 155 3 -3
6 -1 6 6 0 14 355 371 370 371 5 0 10 6 10 13 0 18 34 49 43 40 4 -3 7 -1 7 5
0 9 62 74 149 157 5 6 44 44 85 87 41 42 77 74 80 70 3 -3 6 1 6 10 0 18 34
51 43 41 4 -3 7 -1 7 5 0 15 195 212 209 212 6 0 11 4 11 9 0 15 142 161 152
155 4 -3 8 1 8 8 0 7 25 39 57 71 l56 57 -128 0 c-124 0 -128 -1 -160 -27 -60
-52 -70 -61 -192 -185 -67 -67 -148 -149 -180 -180 -32 -31 -232 -232 -445
-445 -213 -213 -395 -396 -405 -405 -10 -9 -96 -95 -192 -192 -138 -139 -177
-173 -188 -164 -11 9 -12 7 -7 -8 5 -17 4 -17 -7 1 -8 11 -14 24 -14 29 0 20
-43 23 -95 5 -30 -10 -44 -16 -30 -13 14 3 48 7 75 9 l50 4 -53 -8 c-29 -5
-58 -13 -65 -19 -8 -6 -20 -6 -37 1 -14 5 -29 11 -35 11 -5 1 -29 8 -52 15
-38 13 -47 12 -90 -5 -26 -10 -53 -17 -60 -16 -6 1 -14 -2 -18 -8 -3 -5 2 -10
12 -11 11 0 13 -3 5 -6 -7 -3 -23 2 -35 9 -41 27 -86 38 -112 28 -14 -5 -25
-7 -25 -5 0 3 11 10 25 15 17 6 37 5 66 -5 52 -19 75 -19 33 -1 -60 26 -89 28
-114 8 -22 -18 -24 -25 -21 -116 1 -61 -1 -96 -8 -96 -6 0 -12 36 -14 88 l-3
87 -2 -88 c-2 -85 -3 -87 -22 -77 -17 9 -28 7 -55 -10 -19 -12 -35 -26 -35
-32 0 -5 7 -2 16 6 8 9 25 21 37 27 12 7 0 -8 -27 -32 -28 -24 -63 -59 -80
-76 -16 -18 -35 -33 -42 -33 -14 0 -44 -38 -44 -54 0 -5 7 -1 16 10 15 18 15
18 4 -3 -6 -13 -16 -20 -24 -17 -9 4 -21 -6 -30 -25 -19 -35 -20 -45 -5 -35 6
3 3 -5 -6 -20 -21 -32 -28 -33 -20 -3 3 12 -4 5 -16 -17 -11 -21 -18 -47 -16
-57 3 -11 1 -19 -5 -19 -5 0 -7 -3 -4 -8 2 -4 -2 -16 -11 -27 -13 -19 -14 -18
-8 10 6 29 5 29 -10 -5 -9 -19 -18 -52 -19 -73 -1 -20 -8 -43 -15 -50 -11 -10
-12 -7 -7 13 5 17 4 20 -2 10 -17 -27 -34 -120 -28 -145 4 -14 3 -25 -2 -25
-5 0 -14 -26 -20 -57 -9 -49 -10 -51 -7 -13 2 25 7 61 9 80 3 19 -1 10 -10
-20 -8 -30 -16 -83 -17 -118 -2 -71 6 -82 63 -82 24 0 31 -3 21 -9 -8 -5 -21
-7 -30 -4 -12 4 -13 3 -3 -5 11 -7 3 -20 -34 -56 l-48 -46 -413 0 -414 0 22
29 c11 16 32 34 45 41 13 7 26 21 30 32 5 16 18 18 132 18 146 0 160 5 144 47
-6 15 -14 44 -17 63 -4 19 -9 44 -11 55 -5 17 -3 18 6 5 9 -12 11 -7 7 22 -5
31 0 44 25 75 16 21 40 44 53 52 13 8 26 23 28 33 3 10 17 22 31 28 14 5 26
13 26 18 0 13 112 127 138 141 12 6 22 18 22 27 0 8 11 20 25 26 14 6 25 15
25 19 0 11 79 89 91 89 5 0 9 7 9 15 0 9 13 24 30 33 16 9 30 20 30 24 0 7
106 115 146 149 10 9 25 25 33 37 8 11 18 19 22 16 5 -2 13 5 19 16 15 29 110
125 138 139 12 6 22 18 22 27 0 8 11 19 23 25 26 12 60 62 50 73 -3 3 -4 6 -1
6 4 0 25 -16 48 -35 23 -19 46 -35 52 -35 6 0 7 -7 4 -16 -5 -13 -4 -14 7 -6
9 8 17 8 24 1 50 -50 346 -51 407 0 9 7 16 7 25 -2 10 -9 11 -8 5 6 -5 13 -2
16 9 11 20 -7 49 13 78 52 l21 29 -25 -26 c-13 -15 -35 -32 -48 -39 -13 -7
-22 -11 -19 -8 3 2 31 28 63 58 33 31 55 45 51 34 -6 -18 -6 -18 9 1 18 22 22
39 7 30 -6 -3 -7 1 -4 9 3 9 14 16 23 16 23 0 43 44 35 78 -4 18 -3 23 4 14 7
-10 12 -10 23 4 17 21 25 203 11 254 -7 27 -8 15 -4 -51 5 -99 -5 -210 -18
-189 -5 8 -4 22 1 31 12 23 12 196 0 203 -5 4 -7 19 -5 35 5 29 -33 137 -44
127 -3 -3 -12 9 -22 26 -9 18 -23 34 -31 36 -11 4 -10 1 2 -14 18 -21 38 -55
23 -39 -42 46 -57 66 -49 65 16 -3 55 11 55 20 0 12 125 137 150 150 11 6 20
17 20 26 0 8 10 19 23 25 12 6 31 22 41 37 10 15 33 38 51 52 19 14 36 33 38
42 3 10 17 22 31 28 14 5 26 14 26 19 0 5 29 37 65 72 36 35 70 69 76 76 16
16 119 124 158 166 l35 37 -132 0 -131 0 -317 -316 c-326 -326 -362 -355 -400
-323 -20 16 -208 16 -228 0 -8 -6 -25 -9 -38 -6 -27 7 -92 -18 -126 -49 -67
-60 -120 -118 -125 -136 -3 -11 -1 -18 4 -14 5 3 6 -2 3 -10 -7 -19 -24 -21
-25 -3 0 6 -8 -4 -16 -23 -22 -47 -29 -170 -20 -324 l5 -78 -473 -473 c-260
-261 -476 -471 -479 -468 -3 4 -6 -1 -6 -11 0 -9 -5 -14 -10 -11 -6 4 -8 15
-5 25 3 10 -3 40 -14 66 -12 29 -20 41 -21 29 -1 -19 -1 -19 -15 -2 -7 11 -11
25 -9 32 7 17 -24 77 -35 70 -5 -2 -15 3 -22 12 -10 12 -10 14 -1 9 16 -10 15
-1 -3 34 -9 17 -20 30 -26 30 -8 0 -7 -5 1 -15 7 -9 11 -17 9 -19 -2 -2 -15
10 -29 27 -14 17 -19 27 -11 23 9 -6 12 -5 9 4 -2 7 -12 14 -22 16 -10 1 -21
6 -24 10 -4 4 1 4 11 1 25 -9 21 0 -17 36 -72 69 -98 88 -112 83 -7 -3 -16 -1
-19 5 -4 5 -3 8 2 7 8 -3 203 192 203 203 0 4 9 9 20 12 11 3 23 13 27 24 7
18 28 43 36 43 8 0 287 283 287 292 0 4 4 8 9 8 8 0 91 81 268 263 15 15 148
147 161 159 8 7 23 24 35 36 12 13 35 36 51 50 76 71 136 133 136 142 0 6 6
10 13 10 6 1 26 18 42 40 17 21 40 43 52 49 12 5 24 19 28 30 3 12 10 21 15
21 11 0 150 141 150 152 0 4 6 8 14 8 7 0 20 10 29 23 8 12 41 49 73 82 33 33
70 73 83 88 l24 27 -129 0 c-126 0 -130 -1 -148 -25z m-1909 -1787 c17 -16 35
-21 70 -21 36 1 43 -1 26 -8 -32 -12 -92 1 -104 22 -5 11 -20 18 -32 18 -20
-1 -20 -2 -2 -6 11 -3 25 -13 32 -23 7 -9 27 -20 45 -24 l33 -6 -71 -70 c-39
-38 -78 -68 -86 -66 -9 1 -29 17 -44 36 -16 19 -21 29 -11 21 9 -7 17 -10 17
-7 0 11 -34 60 -50 73 -19 14 -15 17 40 31 l45 10 -50 -5 c-38 -4 -54 -1 -64
10 -11 14 -9 15 17 5 23 -9 36 -8 63 4 69 32 97 34 126 6z m2140 0 c26 -25
103 -29 130 -6 9 7 26 12 37 10 17 -2 18 -1 6 7 -18 13 -3 13 25 1 13 -6 15
-9 5 -9 -8 -1 -66 -53 -129 -116 -93 -94 -118 -114 -135 -109 l-21 7 20 -24
c16 -19 17 -21 2 -10 -22 18 -46 58 -27 46 7 -4 11 -4 8 1 -20 45 -33 64 -46
69 -14 5 -14 4 0 -12 17 -20 37 -55 22 -38 -36 39 -57 67 -46 61 16 -9 15 -1
-3 35 -9 16 -20 27 -25 24 -6 -4 -10 0 -10 8 0 8 19 18 48 24 l47 11 -50 -5
c-38 -4 -54 -1 -64 10 -11 14 -9 15 17 5 23 -9 36 -8 63 4 69 32 97 34 126 6z
m2140 0 c26 -25 103 -29 130 -6 9 7 26 12 37 10 18 -2 19 -1 6 8 -12 10 -12
11 5 5 11 -3 32 -9 48 -12 33 -7 46 -23 18 -23 -12 0 -21 -6 -21 -12 0 -19
-230 -243 -251 -244 -11 -1 -15 4 -12 13 7 18 -17 45 -34 39 -12 -5 -18 6 -14
27 2 14 -29 67 -41 67 -6 0 -3 -9 7 -20 10 -11 16 -22 13 -25 -2 -3 -15 9 -28
27 -12 17 -18 28 -11 24 16 -10 13 5 -7 37 -10 15 -22 24 -25 20 -4 -3 -7 0
-7 9 0 9 17 18 48 25 l47 11 -50 -5 c-38 -4 -54 -1 -64 10 -11 14 -9 15 17 5
23 -9 36 -8 63 4 69 32 97 34 126 6z m-3922 -869 c-4 -6 -14 -8 -22 -5 -8 3
-11 1 -8 -4 4 -6 -15 -31 -41 -55 l-47 -45 -414 0 -414 0 21 22 c11 12 20 25
20 30 0 4 7 8 15 8 9 0 24 13 33 30 l17 30 423 0 c298 0 421 -3 417 -11z
m2160 -49 l-60 -60 -415 2 -415 3 55 57 55 57 420 0 420 1 -60 -60z m2270 49
c-4 -6 -14 -8 -22 -5 -8 3 -12 2 -8 -3 3 -5 -16 -30 -41 -55 l-46 -46 -414 0
-415 0 21 22 c11 12 20 25 20 30 0 4 7 8 15 8 9 0 24 13 33 30 l17 30 423 0
c298 0 421 -3 417 -11z m394 -2661 c-6 -38 -15 -68 -20 -68 -13 0 -11 24 4 38
9 10 13 222 17 965 l5 952 3 -910 c2 -635 -1 -930 -9 -977z"/>
<path d="M8741 479 c-220 -221 -401 -405 -401 -410 0 -4 -9 -10 -19 -14 -11
-3 -26 -17 -35 -30 l-16 -25 128 0 129 0 163 160 c90 88 167 160 171 160 5 0
14 10 20 22 14 27 34 48 46 48 4 1 24 21 43 45 19 25 41 45 47 45 7 0 13 4 13
9 0 6 27 38 60 73 l60 62 0 128 c0 70 -2 128 -4 128 -2 0 -184 -181 -405 -401z"/>
</g>
</svg>
