<?xml version="1.0" standalone="no"?>
<!DOCTYPE svg PUBLIC "-//W3C//DTD SVG 20010904//EN"
 "http://www.w3.org/TR/2001/REC-SVG-20010904/DTD/svg10.dtd">
<svg version="1.0" xmlns="http://www.w3.org/2000/svg"
 width="157.000000pt" height="157.000000pt" viewBox="0 0 157.000000 157.000000"
 preserveAspectRatio="xMidYMid meet">

<g transform="translate(0.000000,157.000000) scale(0.100000,-0.100000)"
fill="#000000" stroke="none">
<path d="M0 785 l0 -785 785 0 785 0 0 785 0 785 -785 0 -785 0 0 -785z m600
308 c0 -195 -2 -221 -20 -258 -11 -22 -33 -48 -49 -58 -41 -24 -120 -22 -176
4 -47 22 -54 37 -32 76 l12 22 30 -19 c41 -27 106 -27 131 1 17 19 19 41 22
234 l3 214 32 3 c18 2 35 2 40 0 4 -2 7 -100 7 -219z m185 27 c21 -105 39
-189 40 -188 2 2 26 82 55 178 29 96 54 177 56 179 7 8 65 8 70 -1 3 -5 28
-86 54 -180 27 -94 51 -172 53 -174 2 -2 23 81 47 186 l43 190 39 0 c21 0 38
-3 38 -7 0 -7 -101 -429 -121 -505 -9 -33 -14 -38 -40 -38 -36 0 -35 -2 -95
210 -26 91 -48 167 -50 169 -4 5 0 17 -69 -201 l-56 -178 -34 0 c-23 0 -35 5
-39 18 -8 29 -116 514 -116 523 0 5 19 9 43 9 l43 0 39 -190z m-204 -517 c84
-90 77 -250 -12 -314 -46 -33 -144 -34 -186 -3 -48 36 -67 80 -68 159 0 134
65 210 174 202 48 -3 58 -8 92 -44z m643 33 c41 -17 52 -32 35 -52 -10 -12
-15 -12 -33 -1 -56 36 -116 23 -157 -34 -33 -47 -34 -138 -1 -191 29 -47 85
-68 131 -48 29 11 31 16 31 61 l0 48 -42 3 c-35 2 -43 7 -43 23 0 18 7 20 65
20 l65 0 3 -74 c3 -65 0 -77 -19 -97 -27 -29 -73 -39 -136 -29 -161 24 -191
290 -41 364 50 24 95 27 142 7z m-352 -6 c77 -22 106 -119 52 -174 -15 -14
-33 -26 -40 -26 -22 0 -17 -12 31 -86 24 -38 45 -72 45 -76 0 -5 -11 -8 -25
-8 -21 0 -34 14 -73 75 -43 68 -50 75 -79 75 l-33 0 0 -75 c0 -73 -1 -75 -25
-75 l-25 0 0 183 c0 101 3 187 7 190 10 11 124 8 165 -3z m-581 -320 c5 -41 3
-45 -28 -48 -31 -3 -33 -1 -33 27 0 28 3 31 30 31 17 0 31 -4 31 -10z"/>
<path d="M431 587 c-38 -19 -63 -62 -69 -115 -6 -64 11 -115 49 -147 78 -65
169 5 169 129 0 68 -19 110 -60 131 -35 18 -57 19 -89 2z"/>
<path d="M750 525 l0 -65 53 0 c56 1 80 13 91 47 7 22 -8 62 -28 75 -6 4 -35
8 -63 8 l-53 0 0 -65z"/>
</g>
</svg>
